STARTFONT 2.1
FONT -DEC-VT220-medium-r-DoubleWide-80col-30-300-75-75-m-400-iso10646-1
SIZE 30 75 75
FONTBOUNDINGBOX 40 30 0 -6
STARTPROPERTIES 22
FONTNAME_REGISTRY ""
FOUNDRY "DEC"
FAMILY_NAME "vt220"
WEIGHT_NAME "medium"
RELATIVE_SETWIDTH 70
SLANT r
SETWIDTH_NAME "DoubleWide"
ADD_STYLE_NAME "80col"
PIXEL_SIZE 30
POINT_SIZE 300
RESOLUTION_X 75
RESOLUTION_Y 75
SPACING "m"
CHARSET_REGISTRY "ISO10646"
CHARSET_ENCODING "1"
CAP_HEIGHT 21
X_HEIGHT 15
WEIGHT 10
QUAD_WIDTH 40
DEFAULT_CHAR 9670
FONT_ASCENT 24
FONT_DESCENT 6
AVERAGE_WIDTH 400
ENDPROPERTIES
CHARS 288
STARTCHAR U+00FD
ENCODING 253
SWIDTH 1000 0
BBX 40 30 0 -6
DWIDTH 40 0
BITMAP
000000000000
000000000000
000000000000
FC00FC000000
FC00FC000000
FC00FC000000
FFC0FC000000
FFC0FC000000
FFC0FC000000
FCFCFC000000
FCFCFC000000
FCFCFC000000
FC0FFC000000
FC0FFC000000
FC0FFC000000
FC0FFCFC0000
FC0FFCFC0000
FC0FFCFC0000
000FC0FC0000
000FC0FC0000
000FC0FC0000
000FC0FC0000
000FC0FC0000
000FC0FC0000
000FC0FC0000
000FC0FC0000
000FC0FC0000
0000FFC00000
0000FFC00000
0000FFC00000
ENDCHAR
STARTCHAR U+25A1
ENCODING 9633
SWIDTH 1000 0
BBX 40 30 0 -6
DWIDTH 40 0
BITMAP
000000000000
000000000000
000000000000
FFFFFFFC0000
FFFFFFFC0000
FFFFFFFC0000
FC0000FC0000
FC0000FC0000
FC0000FC0000
FC0000FC0000
FC0000FC0000
FC0000FC0000
FC0000FC0000
FC0000FC0000
FC0000FC0000
FC0000FC0000
FC0000FC0000
FC0000FC0000
FC0000FC0000
FC0000FC0000
FC0000FC0000
FFFFFFFC0000
FFFFFFFC0000
FFFFFFFC0000
000000000000
000000000000
000000000000
000000000000
000000000000
000000000000
ENDCHAR
STARTCHAR U+00FE
ENCODING 254
SWIDTH 1000 0
BBX 40 30 0 -6
DWIDTH 40 0
BITMAP
000000000000
000000000000
000000000000
FFFFC0000000
FFFFC0000000
FFFFC0000000
FC0000000000
FC0000000000
FC0000000000
FFFC00000000
FFFC00000000
FFFC00000000
FC0000000000
FC0000000000
FC0000000000
FC0FFFFC0000
FC0FFFFC0000
FC0FFFFC0000
000FC0000000
000FC0000000
000FC0000000
000FFFC00000
000FFFC00000
000FFFC00000
000FC0000000
000FC0000000
000FC0000000
000FFFFC0000
000FFFFC0000
000FFFFC0000
ENDCHAR
STARTCHAR U+00FF
ENCODING 255
SWIDTH 1000 0
BBX 40 30 0 -6
DWIDTH 40 0
BITMAP
000000000000
000000000000
000000000000
0FC00FC00000
0FC00FC00000
0FC00FC00000
000000000000
000000000000
000000000000
FC000FC00000
FC000FC00000
FC000FC00000
FC000FC00000
FC000FC00000
FC000FC00000
FC00FFC00000
FC00FFC00000
FC00FFC00000
0FFFCFC00000
0FFFCFC00000
0FFFCFC00000
00000FC00000
00000FC00000
00000FC00000
FC000FC00000
FC000FC00000
FC000FC00000
0FFFFC000000
0FFFFC000000
0FFFFC000000
ENDCHAR
STARTCHAR U+00FC
ENCODING 252
SWIDTH 1000 0
BBX 40 30 0 -6
DWIDTH 40 0
BITMAP
000000000000
000000000000
000000000000
0FC00FC00000
0FC00FC00000
0FC00FC00000
000000000000
000000000000
000000000000
FC000FC00000
FC000FC00000
FC000FC00000
FC000FC00000
FC000FC00000
FC000FC00000
FC000FC00000
FC000FC00000
FC000FC00000
FC000FC00000
FC000FC00000
FC000FC00000
0FFFFCFC0000
0FFFFCFC0000
0FFFFCFC0000
000000000000
000000000000
000000000000
000000000000
000000000000
000000000000
ENDCHAR
STARTCHAR U+00FB
ENCODING 251
SWIDTH 1000 0
BBX 40 30 0 -6
DWIDTH 40 0
BITMAP
00FFFC000000
00FFFC000000
00FFFC000000
0FC00FC00000
0FC00FC00000
0FC00FC00000
000000000000
000000000000
000000000000
FC000FC00000
FC000FC00000
FC000FC00000
FC000FC00000
FC000FC00000
FC000FC00000
FC000FC00000
FC000FC00000
FC000FC00000
FC000FC00000
FC000FC00000
FC000FC00000
0FFFFCFC0000
0FFFFCFC0000
0FFFFCFC0000
000000000000
000000000000
000000000000
000000000000
000000000000
000000000000
ENDCHAR
STARTCHAR U+00FA
ENCODING 250
SWIDTH 1000 0
BBX 40 30 0 -6
DWIDTH 40 0
BITMAP
000000000000
000000000000
000000000000
000FFC000000
000FFC000000
000FFC000000
0FFC00000000
0FFC00000000
0FFC00000000
FC000FC00000
FC000FC00000
FC000FC00000
FC000FC00000
FC000FC00000
FC000FC00000
FC000FC00000
FC000FC00000
FC000FC00000
FC000FC00000
FC000FC00000
FC000FC00000
0FFFFCFC0000
0FFFFCFC0000
0FFFFCFC0000
000000000000
000000000000
000000000000
000000000000
000000000000
000000000000
ENDCHAR
STARTCHAR U+00F9
ENCODING 249
SWIDTH 1000 0
BBX 40 30 0 -6
DWIDTH 40 0
BITMAP
000000000000
000000000000
000000000000
0FFC00000000
0FFC00000000
0FFC00000000
000FFC000000
000FFC000000
000FFC000000
FC000FC00000
FC000FC00000
FC000FC00000
FC000FC00000
FC000FC00000
FC000FC00000
FC000FC00000
FC000FC00000
FC000FC00000
FC000FC00000
FC000FC00000
FC000FC00000
0FFFFCFC0000
0FFFFCFC0000
0FFFFCFC0000
000000000000
000000000000
000000000000
000000000000
000000000000
000000000000
ENDCHAR
STARTCHAR U+00F8
ENCODING 248
SWIDTH 1000 0
BBX 40 30 0 -6
DWIDTH 40 0
BITMAP
000000000000
000000000000
000000000000
000000000000
000000000000
000000000000
000000FC0000
000000FC0000
000000FC0000
0FFFFFC00000
0FFFFFC00000
0FFFFFC00000
FC00FCFC0000
FC00FCFC0000
FC00FCFC0000
FC0FC0FC0000
FC0FC0FC0000
FC0FC0FC0000
FCFC00FC0000
FCFC00FC0000
FCFC00FC0000
0FFFFFC00000
0FFFFFC00000
0FFFFFC00000
FC0000000000
FC0000000000
FC0000000000
000000000000
000000000000
000000000000
ENDCHAR
STARTCHAR U+0152
ENCODING 338
SWIDTH 1000 0
BBX 40 30 0 -6
DWIDTH 40 0
BITMAP
000000000000
000000000000
000000000000
000000000000
000000000000
000000000000
000000000000
000000000000
000000000000
0FFCFFC00000
0FFCFFC00000
0FFCFFC00000
FC0FC0FC0000
FC0FC0FC0000
FC0FC0FC0000
FC0FFFFC0000
FC0FFFFC0000
FC0FFFFC0000
FC0FC0000000
FC0FC0000000
FC0FC0000000
0FFCFFFC0000
0FFCFFFC0000
0FFCFFFC0000
000000000000
000000000000
000000000000
000000000000
000000000000
000000000000
ENDCHAR
STARTCHAR U+00F6
ENCODING 246
SWIDTH 1000 0
BBX 40 30 0 -6
DWIDTH 40 0
BITMAP
000000000000
000000000000
000000000000
0FC00FC00000
0FC00FC00000
0FC00FC00000
000000000000
000000000000
000000000000
0FFFFFC00000
0FFFFFC00000
0FFFFFC00000
FC0000FC0000
FC0000FC0000
FC0000FC0000
FC0000FC0000
FC0000FC0000
FC0000FC0000
FC0000FC0000
FC0000FC0000
FC0000FC0000
0FFFFFC00000
0FFFFFC00000
0FFFFFC00000
000000000000
000000000000
000000000000
000000000000
000000000000
000000000000
ENDCHAR
STARTCHAR U+00F5
ENCODING 245
SWIDTH 1000 0
BBX 40 30 0 -6
DWIDTH 40 0
BITMAP
0FFC0FC00000
0FFC0FC00000
0FFC0FC00000
FC0FFC000000
FC0FFC000000
FC0FFC000000
000000000000
000000000000
000000000000
0FFFFFC00000
0FFFFFC00000
0FFFFFC00000
FC0000FC0000
FC0000FC0000
FC0000FC0000
FC0000FC0000
FC0000FC0000
FC0000FC0000
FC0000FC0000
FC0000FC0000
FC0000FC0000
0FFFFFC00000
0FFFFFC00000
0FFFFFC00000
000000000000
000000000000
000000000000
000000000000
000000000000
000000000000
ENDCHAR
STARTCHAR U+00F4
ENCODING 244
SWIDTH 1000 0
BBX 40 30 0 -6
DWIDTH 40 0
BITMAP
00FFFC000000
00FFFC000000
00FFFC000000
0FC00FC00000
0FC00FC00000
0FC00FC00000
000000000000
000000000000
000000000000
0FFFFFC00000
0FFFFFC00000
0FFFFFC00000
FC0000FC0000
FC0000FC0000
FC0000FC0000
FC0000FC0000
FC0000FC0000
FC0000FC0000
FC0000FC0000
FC0000FC0000
FC0000FC0000
0FFFFFC00000
0FFFFFC00000
0FFFFFC00000
000000000000
000000000000
000000000000
000000000000
000000000000
000000000000
ENDCHAR
STARTCHAR U+00F3
ENCODING 243
SWIDTH 1000 0
BBX 40 30 0 -6
DWIDTH 40 0
BITMAP
000000000000
000000000000
000000000000
000FFC000000
000FFC000000
000FFC000000
0FFC00000000
0FFC00000000
0FFC00000000
0FFFFFC00000
0FFFFFC00000
0FFFFFC00000
FC0000FC0000
FC0000FC0000
FC0000FC0000
FC0000FC0000
FC0000FC0000
FC0000FC0000
FC0000FC0000
FC0000FC0000
FC0000FC0000
0FFFFFC00000
0FFFFFC00000
0FFFFFC00000
000000000000
000000000000
000000000000
000000000000
000000000000
000000000000
ENDCHAR
STARTCHAR U+00F2
ENCODING 242
SWIDTH 1000 0
BBX 40 30 0 -6
DWIDTH 40 0
BITMAP
000000000000
000000000000
000000000000
00FFC0000000
00FFC0000000
00FFC0000000
0000FFC00000
0000FFC00000
0000FFC00000
0FFFFFC00000
0FFFFFC00000
0FFFFFC00000
FC0000FC0000
FC0000FC0000
FC0000FC0000
FC0000FC0000
FC0000FC0000
FC0000FC0000
FC0000FC0000
FC0000FC0000
FC0000FC0000
0FFFFFC00000
0FFFFFC00000
0FFFFFC00000
000000000000
000000000000
000000000000
000000000000
000000000000
000000000000
ENDCHAR
STARTCHAR U+00F1
ENCODING 241
SWIDTH 1000 0
BBX 40 30 0 -6
DWIDTH 40 0
BITMAP
0FFC0FC00000
0FFC0FC00000
0FFC0FC00000
FC0FFC000000
FC0FFC000000
FC0FFC000000
000000000000
000000000000
000000000000
FCFFFFC00000
FCFFFFC00000
FCFFFFC00000
FFC000FC0000
FFC000FC0000
FFC000FC0000
FC0000FC0000
FC0000FC0000
FC0000FC0000
FC0000FC0000
FC0000FC0000
FC0000FC0000
FC0000FC0000
FC0000FC0000
FC0000FC0000
000000000000
000000000000
000000000000
000000000000
000000000000
000000000000
ENDCHAR
STARTCHAR U+00F0
ENCODING 240
SWIDTH 1000 0
BBX 40 30 0 -6
DWIDTH 40 0
BITMAP
000000000000
000000000000
000000000000
FFFFC0000000
FFFFC0000000
FFFFC0000000
FC0000000000
FC0000000000
FC0000000000
FFFC00000000
FFFC00000000
FFFC00000000
FC0000000000
FC0000000000
FC0000000000
FC00FFC00000
FC00FFC00000
FC00FFC00000
000FC0FC0000
000FC0FC0000
000FC0FC0000
000FC0FC0000
000FC0FC0000
000FC0FC0000
000FC0FC0000
000FC0FC0000
000FC0FC0000
0000FFC00000
0000FFC00000
0000FFC00000
ENDCHAR
STARTCHAR U+00EF
ENCODING 239
SWIDTH 1000 0
BBX 40 30 0 -6
DWIDTH 40 0
BITMAP
000000000000
000000000000
000000000000
0FC00FC00000
0FC00FC00000
0FC00FC00000
000000000000
000000000000
000000000000
00FFC0000000
00FFC0000000
00FFC0000000
000FC0000000
000FC0000000
000FC0000000
000FC0000000
000FC0000000
000FC0000000
000FC0000000
000FC0000000
000FC0000000
0FFFFFC00000
0FFFFFC00000
0FFFFFC00000
000000000000
000000000000
000000000000
000000000000
000000000000
000000000000
ENDCHAR
STARTCHAR U+00EE
ENCODING 238
SWIDTH 1000 0
BBX 40 30 0 -6
DWIDTH 40 0
BITMAP
00FFFC000000
00FFFC000000
00FFFC000000
0FC00FC00000
0FC00FC00000
0FC00FC00000
000000000000
000000000000
000000000000
00FFC0000000
00FFC0000000
00FFC0000000
000FC0000000
000FC0000000
000FC0000000
000FC0000000
000FC0000000
000FC0000000
000FC0000000
000FC0000000
000FC0000000
0FFFFFC00000
0FFFFFC00000
0FFFFFC00000
000000000000
000000000000
000000000000
000000000000
000000000000
000000000000
ENDCHAR
STARTCHAR U+00ED
ENCODING 237
SWIDTH 1000 0
BBX 40 30 0 -6
DWIDTH 40 0
BITMAP
000000000000
000000000000
000000000000
000FFC000000
000FFC000000
000FFC000000
0FFC00000000
0FFC00000000
0FFC00000000
00FFC0000000
00FFC0000000
00FFC0000000
000FC0000000
000FC0000000
000FC0000000
000FC0000000
000FC0000000
000FC0000000
000FC0000000
000FC0000000
000FC0000000
0FFFFFC00000
0FFFFFC00000
0FFFFFC00000
000000000000
000000000000
000000000000
000000000000
000000000000
000000000000
ENDCHAR
STARTCHAR U+00EC
ENCODING 236
SWIDTH 1000 0
BBX 40 30 0 -6
DWIDTH 40 0
BITMAP
000000000000
000000000000
000000000000
0FFC00000000
0FFC00000000
0FFC00000000
000FFC000000
000FFC000000
000FFC000000
00FFC0000000
00FFC0000000
00FFC0000000
000FC0000000
000FC0000000
000FC0000000
000FC0000000
000FC0000000
000FC0000000
000FC0000000
000FC0000000
000FC0000000
0FFFFFC00000
0FFFFFC00000
0FFFFFC00000
000000000000
000000000000
000000000000
000000000000
000000000000
000000000000
ENDCHAR
STARTCHAR U+00EB
ENCODING 235
SWIDTH 1000 0
BBX 40 30 0 -6
DWIDTH 40 0
BITMAP
000000000000
000000000000
000000000000
0FC00FC00000
0FC00FC00000
0FC00FC00000
000000000000
000000000000
000000000000
0FFFFFC00000
0FFFFFC00000
0FFFFFC00000
FC0000FC0000
FC0000FC0000
FC0000FC0000
FFFFFFFC0000
FFFFFFFC0000
FFFFFFFC0000
FC0000000000
FC0000000000
FC0000000000
0FFFFFC00000
0FFFFFC00000
0FFFFFC00000
000000000000
000000000000
000000000000
000000000000
000000000000
000000000000
ENDCHAR
STARTCHAR U+00EA
ENCODING 234
SWIDTH 1000 0
BBX 40 30 0 -6
DWIDTH 40 0
BITMAP
00FFFC000000
00FFFC000000
00FFFC000000
0FC00FC00000
0FC00FC00000
0FC00FC00000
000000000000
000000000000
000000000000
0FFFFFC00000
0FFFFFC00000
0FFFFFC00000
FC0000FC0000
FC0000FC0000
FC0000FC0000
FFFFFFFC0000
FFFFFFFC0000
FFFFFFFC0000
FC0000000000
FC0000000000
FC0000000000
0FFFFFC00000
0FFFFFC00000
0FFFFFC00000
000000000000
000000000000
000000000000
000000000000
000000000000
000000000000
ENDCHAR
STARTCHAR U+00E9
ENCODING 233
SWIDTH 1000 0
BBX 40 30 0 -6
DWIDTH 40 0
BITMAP
000000000000
000000000000
000000000000
000FFC000000
000FFC000000
000FFC000000
0FFC00000000
0FFC00000000
0FFC00000000
0FFFFFC00000
0FFFFFC00000
0FFFFFC00000
FC0000FC0000
FC0000FC0000
FC0000FC0000
FFFFFFFC0000
FFFFFFFC0000
FFFFFFFC0000
FC0000000000
FC0000000000
FC0000000000
0FFFFFC00000
0FFFFFC00000
0FFFFFC00000
000000000000
000000000000
000000000000
000000000000
000000000000
000000000000
ENDCHAR
STARTCHAR U+00E8
ENCODING 232
SWIDTH 1000 0
BBX 40 30 0 -6
DWIDTH 40 0
BITMAP
000000000000
000000000000
000000000000
00FFC0000000
00FFC0000000
00FFC0000000
0000FFC00000
0000FFC00000
0000FFC00000
0FFFFFC00000
0FFFFFC00000
0FFFFFC00000
FC0000FC0000
FC0000FC0000
FC0000FC0000
FFFFFFFC0000
FFFFFFFC0000
FFFFFFFC0000
FC0000000000
FC0000000000
FC0000000000
0FFFFFC00000
0FFFFFC00000
0FFFFFC00000
000000000000
000000000000
000000000000
000000000000
000000000000
000000000000
ENDCHAR
STARTCHAR U+00E7
ENCODING 231
SWIDTH 1000 0
BBX 40 30 0 -6
DWIDTH 40 0
BITMAP
000000000000
000000000000
000000000000
000000000000
000000000000
000000000000
000000000000
000000000000
000000000000
0FFFFFC00000
0FFFFFC00000
0FFFFFC00000
FC0000FC0000
FC0000FC0000
FC0000FC0000
FC0000000000
FC0000000000
FC0000000000
FC0000FC0000
FC0000FC0000
FC0000FC0000
0FFFFFC00000
0FFFFFC00000
0FFFFFC00000
0000FC000000
0000FC000000
0000FC000000
00FFFC000000
00FFFC000000
00FFFC000000
ENDCHAR
STARTCHAR U+00E6
ENCODING 230
SWIDTH 1000 0
BBX 40 30 0 -6
DWIDTH 40 0
BITMAP
000000000000
000000000000
000000000000
000000000000
000000000000
000000000000
000000000000
000000000000
000000000000
0FFCFFC00000
0FFCFFC00000
0FFCFFC00000
000FC0FC0000
000FC0FC0000
000FC0FC0000
0FFFFFFC0000
0FFFFFFC0000
0FFFFFFC0000
FC0FC0000000
FC0FC0000000
FC0FC0000000
0FFFFFFC0000
0FFFFFFC0000
0FFFFFFC0000
000000000000
000000000000
000000000000
000000000000
000000000000
000000000000
ENDCHAR
STARTCHAR U+00E5
ENCODING 229
SWIDTH 1000 0
BBX 40 30 0 -6
DWIDTH 40 0
BITMAP
00FFFC000000
00FFFC000000
00FFFC000000
0FC00FC00000
0FC00FC00000
0FC00FC00000
00FFFC000000
00FFFC000000
00FFFC000000
0FFFFFC00000
0FFFFFC00000
0FFFFFC00000
000000FC0000
000000FC0000
000000FC0000
0FFFFFFC0000
0FFFFFFC0000
0FFFFFFC0000
FC000FFC0000
FC000FFC0000
FC000FFC0000
0FFFFCFC0000
0FFFFCFC0000
0FFFFCFC0000
000000000000
000000000000
000000000000
000000000000
000000000000
000000000000
ENDCHAR
STARTCHAR U+00E4
ENCODING 228
SWIDTH 1000 0
BBX 40 30 0 -6
DWIDTH 40 0
BITMAP
000000000000
000000000000
000000000000
0FC00FC00000
0FC00FC00000
0FC00FC00000
000000000000
000000000000
000000000000
0FFFFFC00000
0FFFFFC00000
0FFFFFC00000
000000FC0000
000000FC0000
000000FC0000
0FFFFFFC0000
0FFFFFFC0000
0FFFFFFC0000
FC000FFC0000
FC000FFC0000
FC000FFC0000
0FFFFCFC0000
0FFFFCFC0000
0FFFFCFC0000
000000000000
000000000000
000000000000
000000000000
000000000000
000000000000
ENDCHAR
STARTCHAR U+00E3
ENCODING 227
SWIDTH 1000 0
BBX 40 30 0 -6
DWIDTH 40 0
BITMAP
00FFC0FC0000
00FFC0FC0000
00FFC0FC0000
0FC0FFC00000
0FC0FFC00000
0FC0FFC00000
000000000000
000000000000
000000000000
0FFFFFC00000
0FFFFFC00000
0FFFFFC00000
000000FC0000
000000FC0000
000000FC0000
0FFFFFFC0000
0FFFFFFC0000
0FFFFFFC0000
FC000FFC0000
FC000FFC0000
FC000FFC0000
0FFFFCFC0000
0FFFFCFC0000
0FFFFCFC0000
000000000000
000000000000
000000000000
000000000000
000000000000
000000000000
ENDCHAR
STARTCHAR U+00E2
ENCODING 226
SWIDTH 1000 0
BBX 40 30 0 -6
DWIDTH 40 0
BITMAP
00FFFC000000
00FFFC000000
00FFFC000000
0FC00FC00000
0FC00FC00000
0FC00FC00000
000000000000
000000000000
000000000000
0FFFFFC00000
0FFFFFC00000
0FFFFFC00000
000000FC0000
000000FC0000
000000FC0000
0FFFFFFC0000
0FFFFFFC0000
0FFFFFFC0000
FC000FFC0000
FC000FFC0000
FC000FFC0000
0FFFFCFC0000
0FFFFCFC0000
0FFFFCFC0000
000000000000
000000000000
000000000000
000000000000
000000000000
000000000000
ENDCHAR
STARTCHAR U+00E1
ENCODING 225
SWIDTH 1000 0
BBX 40 30 0 -6
DWIDTH 40 0
BITMAP
000000000000
000000000000
000000000000
000FFC000000
000FFC000000
000FFC000000
0FFC00000000
0FFC00000000
0FFC00000000
0FFFFFC00000
0FFFFFC00000
0FFFFFC00000
000000FC0000
000000FC0000
000000FC0000
0FFFFFFC0000
0FFFFFFC0000
0FFFFFFC0000
FC000FFC0000
FC000FFC0000
FC000FFC0000
0FFFFCFC0000
0FFFFCFC0000
0FFFFCFC0000
000000000000
000000000000
000000000000
000000000000
000000000000
000000000000
ENDCHAR
STARTCHAR U+00E0
ENCODING 224
SWIDTH 1000 0
BBX 40 30 0 -6
DWIDTH 40 0
BITMAP
000000000000
000000000000
000000000000
00FFC0000000
00FFC0000000
00FFC0000000
0000FFC00000
0000FFC00000
0000FFC00000
0FFFFFC00000
0FFFFFC00000
0FFFFFC00000
000000FC0000
000000FC0000
000000FC0000
0FFFFFFC0000
0FFFFFFC0000
0FFFFFFC0000
FC000FFC0000
FC000FFC0000
FC000FFC0000
0FFFFCFC0000
0FFFFCFC0000
0FFFFCFC0000
000000000000
000000000000
000000000000
000000000000
000000000000
000000000000
ENDCHAR
STARTCHAR U+00DF
ENCODING 223
SWIDTH 1000 0
BBX 40 30 0 -6
DWIDTH 40 0
BITMAP
000000000000
000000000000
000000000000
00FFFC000000
00FFFC000000
00FFFC000000
0FC00FC00000
0FC00FC00000
0FC00FC00000
FC000FC00000
FC000FC00000
FC000FC00000
FCFFFC000000
FCFFFC000000
FCFFFC000000
FC000FC00000
FC000FC00000
FC000FC00000
FCFC00FC0000
FCFC00FC0000
FCFC00FC0000
FC0FFFC00000
FC0FFFC00000
FC0FFFC00000
FC0000000000
FC0000000000
FC0000000000
000000000000
000000000000
000000000000
ENDCHAR
STARTCHAR U+00DE
ENCODING 222
SWIDTH 1000 0
BBX 40 30 0 -6
DWIDTH 40 0
BITMAP
000000000000
000000000000
000000000000
FFFC00000000
FFFC00000000
FFFC00000000
FC0FC0000000
FC0FC0000000
FC0FC0000000
FC0FC0000000
FC0FC0000000
FC0FC0000000
FC0FC0000000
FC0FC0000000
FC0FC0000000
FFFFFFFC0000
FFFFFFFC0000
FFFFFFFC0000
000FC0000000
000FC0000000
000FC0000000
000FFFC00000
000FFFC00000
000FFFC00000
000FC0000000
000FC0000000
000FC0000000
000FFFFC0000
000FFFFC0000
000FFFFC0000
ENDCHAR
STARTCHAR U+0178
ENCODING 376
SWIDTH 1000 0
BBX 40 30 0 -6
DWIDTH 40 0
BITMAP
0FC00FC00000
0FC00FC00000
0FC00FC00000
000000000000
000000000000
000000000000
FC0000FC0000
FC0000FC0000
FC0000FC0000
0FC00FC00000
0FC00FC00000
0FC00FC00000
00FCFC000000
00FCFC000000
00FCFC000000
000FC0000000
000FC0000000
000FC0000000
000FC0000000
000FC0000000
000FC0000000
000FC0000000
000FC0000000
000FC0000000
000000000000
000000000000
000000000000
000000000000
000000000000
000000000000
ENDCHAR
STARTCHAR U+00DC
ENCODING 220
SWIDTH 1000 0
BBX 40 30 0 -6
DWIDTH 40 0
BITMAP
0FC00FC00000
0FC00FC00000
0FC00FC00000
000000000000
000000000000
000000000000
FC0000FC0000
FC0000FC0000
FC0000FC0000
FC0000FC0000
FC0000FC0000
FC0000FC0000
FC0000FC0000
FC0000FC0000
FC0000FC0000
FC0000FC0000
FC0000FC0000
FC0000FC0000
FC0000FC0000
FC0000FC0000
FC0000FC0000
0FFFFFC00000
0FFFFFC00000
0FFFFFC00000
000000000000
000000000000
000000000000
000000000000
000000000000
000000000000
ENDCHAR
STARTCHAR U+00DB
ENCODING 219
SWIDTH 1000 0
BBX 40 30 0 -6
DWIDTH 40 0
BITMAP
000FC0000000
000FC0000000
000FC0000000
00FCFC000000
00FCFC000000
00FCFC000000
FC0000FC0000
FC0000FC0000
FC0000FC0000
FC0000FC0000
FC0000FC0000
FC0000FC0000
FC0000FC0000
FC0000FC0000
FC0000FC0000
FC0000FC0000
FC0000FC0000
FC0000FC0000
FC0000FC0000
FC0000FC0000
FC0000FC0000
0FFFFFC00000
0FFFFFC00000
0FFFFFC00000
000000000000
000000000000
000000000000
000000000000
000000000000
000000000000
ENDCHAR
STARTCHAR U+00DA
ENCODING 218
SWIDTH 1000 0
BBX 40 30 0 -6
DWIDTH 40 0
BITMAP
0000FFC00000
0000FFC00000
0000FFC00000
00FFC0000000
00FFC0000000
00FFC0000000
FC0000FC0000
FC0000FC0000
FC0000FC0000
FC0000FC0000
FC0000FC0000
FC0000FC0000
FC0000FC0000
FC0000FC0000
FC0000FC0000
FC0000FC0000
FC0000FC0000
FC0000FC0000
FC0000FC0000
FC0000FC0000
FC0000FC0000
0FFFFFC00000
0FFFFFC00000
0FFFFFC00000
000000000000
000000000000
000000000000
000000000000
000000000000
000000000000
ENDCHAR
STARTCHAR U+00D9
ENCODING 217
SWIDTH 1000 0
BBX 40 30 0 -6
DWIDTH 40 0
BITMAP
0FFC00000000
0FFC00000000
0FFC00000000
000FFC000000
000FFC000000
000FFC000000
FC0000FC0000
FC0000FC0000
FC0000FC0000
FC0000FC0000
FC0000FC0000
FC0000FC0000
FC0000FC0000
FC0000FC0000
FC0000FC0000
FC0000FC0000
FC0000FC0000
FC0000FC0000
FC0000FC0000
FC0000FC0000
FC0000FC0000
0FFFFFC00000
0FFFFFC00000
0FFFFFC00000
000000000000
000000000000
000000000000
000000000000
000000000000
000000000000
ENDCHAR
STARTCHAR U+00D8
ENCODING 216
SWIDTH 1000 0
BBX 40 30 0 -6
DWIDTH 40 0
BITMAP
000000FC0000
000000FC0000
000000FC0000
0FFFFFC00000
0FFFFFC00000
0FFFFFC00000
FC000FFC0000
FC000FFC0000
FC000FFC0000
FC00FCFC0000
FC00FCFC0000
FC00FCFC0000
FC0FC0FC0000
FC0FC0FC0000
FC0FC0FC0000
FCFC00FC0000
FCFC00FC0000
FCFC00FC0000
FFC000FC0000
FFC000FC0000
FFC000FC0000
0FFFFFC00000
0FFFFFC00000
0FFFFFC00000
FC0000000000
FC0000000000
FC0000000000
000000000000
000000000000
000000000000
ENDCHAR
STARTCHAR U+0152
ENCODING 338
SWIDTH 1000 0
BBX 40 30 0 -6
DWIDTH 40 0
BITMAP
000000000000
000000000000
000000000000
0FFCFFFC0000
0FFCFFFC0000
0FFCFFFC0000
FC0FC0000000
FC0FC0000000
FC0FC0000000
FC0FC0000000
FC0FC0000000
FC0FC0000000
FC0FFFC00000
FC0FFFC00000
FC0FFFC00000
FC0FC0000000
FC0FC0000000
FC0FC0000000
FC0FC0000000
FC0FC0000000
FC0FC0000000
0FFCFFFC0000
0FFCFFFC0000
0FFCFFFC0000
000000000000
000000000000
000000000000
000000000000
000000000000
000000000000
ENDCHAR
STARTCHAR U+00D6
ENCODING 214
SWIDTH 1000 0
BBX 40 30 0 -6
DWIDTH 40 0
BITMAP
0FC00FC00000
0FC00FC00000
0FC00FC00000
000000000000
000000000000
000000000000
0FFFFFC00000
0FFFFFC00000
0FFFFFC00000
FC0000FC0000
FC0000FC0000
FC0000FC0000
FC0000FC0000
FC0000FC0000
FC0000FC0000
FC0000FC0000
FC0000FC0000
FC0000FC0000
FC0000FC0000
FC0000FC0000
FC0000FC0000
0FFFFFC00000
0FFFFFC00000
0FFFFFC00000
000000000000
000000000000
000000000000
000000000000
000000000000
000000000000
ENDCHAR
STARTCHAR U+00D5
ENCODING 213
SWIDTH 1000 0
BBX 40 30 0 -6
DWIDTH 40 0
BITMAP
0FFC0FC00000
0FFC0FC00000
0FFC0FC00000
FC0FFC000000
FC0FFC000000
FC0FFC000000
0FFFFFC00000
0FFFFFC00000
0FFFFFC00000
FC0000FC0000
FC0000FC0000
FC0000FC0000
FC0000FC0000
FC0000FC0000
FC0000FC0000
FC0000FC0000
FC0000FC0000
FC0000FC0000
FC0000FC0000
FC0000FC0000
FC0000FC0000
0FFFFFC00000
0FFFFFC00000
0FFFFFC00000
000000000000
000000000000
000000000000
000000000000
000000000000
000000000000
ENDCHAR
STARTCHAR U+00D4
ENCODING 212
SWIDTH 1000 0
BBX 40 30 0 -6
DWIDTH 40 0
BITMAP
00FFFC000000
00FFFC000000
00FFFC000000
0FC00FC00000
0FC00FC00000
0FC00FC00000
0FFFFFC00000
0FFFFFC00000
0FFFFFC00000
FC0000FC0000
FC0000FC0000
FC0000FC0000
FC0000FC0000
FC0000FC0000
FC0000FC0000
FC0000FC0000
FC0000FC0000
FC0000FC0000
FC0000FC0000
FC0000FC0000
FC0000FC0000
0FFFFFC00000
0FFFFFC00000
0FFFFFC00000
000000000000
000000000000
000000000000
000000000000
000000000000
000000000000
ENDCHAR
STARTCHAR U+00D3
ENCODING 211
SWIDTH 1000 0
BBX 40 30 0 -6
DWIDTH 40 0
BITMAP
000FFC000000
000FFC000000
000FFC000000
0FFC00000000
0FFC00000000
0FFC00000000
0FFFFFC00000
0FFFFFC00000
0FFFFFC00000
FC0000FC0000
FC0000FC0000
FC0000FC0000
FC0000FC0000
FC0000FC0000
FC0000FC0000
FC0000FC0000
FC0000FC0000
FC0000FC0000
FC0000FC0000
FC0000FC0000
FC0000FC0000
0FFFFFC00000
0FFFFFC00000
0FFFFFC00000
000000000000
000000000000
000000000000
000000000000
000000000000
000000000000
ENDCHAR
STARTCHAR U+00D2
ENCODING 210
SWIDTH 1000 0
BBX 40 30 0 -6
DWIDTH 40 0
BITMAP
00FFC0000000
00FFC0000000
00FFC0000000
0000FFC00000
0000FFC00000
0000FFC00000
0FFFFFC00000
0FFFFFC00000
0FFFFFC00000
FC0000FC0000
FC0000FC0000
FC0000FC0000
FC0000FC0000
FC0000FC0000
FC0000FC0000
FC0000FC0000
FC0000FC0000
FC0000FC0000
FC0000FC0000
FC0000FC0000
FC0000FC0000
0FFFFFC00000
0FFFFFC00000
0FFFFFC00000
000000000000
000000000000
000000000000
000000000000
000000000000
000000000000
ENDCHAR
STARTCHAR U+00D1
ENCODING 209
SWIDTH 1000 0
BBX 40 30 0 -6
DWIDTH 40 0
BITMAP
00FFC0FC0000
00FFC0FC0000
00FFC0FC0000
0FC0FFC00000
0FC0FFC00000
0FC0FFC00000
FFC000FC0000
FFC000FC0000
FFC000FC0000
FCFC00FC0000
FCFC00FC0000
FCFC00FC0000
FC0FC0FC0000
FC0FC0FC0000
FC0FC0FC0000
FC00FCFC0000
FC00FCFC0000
FC00FCFC0000
FC000FFC0000
FC000FFC0000
FC000FFC0000
FC0000FC0000
FC0000FC0000
FC0000FC0000
000000000000
000000000000
000000000000
000000000000
000000000000
000000000000
ENDCHAR
STARTCHAR U+00D0
ENCODING 208
SWIDTH 1000 0
BBX 40 30 0 -6
DWIDTH 40 0
BITMAP
000000000000
000000000000
000000000000
FFFC00000000
FFFC00000000
FFFC00000000
FC0FC0000000
FC0FC0000000
FC0FC0000000
FC0FC0000000
FC0FC0000000
FC0FC0000000
FC0FC0000000
FC0FC0000000
FC0FC0000000
FFFCFFC00000
FFFCFFC00000
FFFCFFC00000
000FC0FC0000
000FC0FC0000
000FC0FC0000
000FC0FC0000
000FC0FC0000
000FC0FC0000
000FC0FC0000
000FC0FC0000
000FC0FC0000
0000FFC00000
0000FFC00000
0000FFC00000
ENDCHAR
STARTCHAR U+00CF
ENCODING 207
SWIDTH 1000 0
BBX 40 30 0 -6
DWIDTH 40 0
BITMAP
0FC00FC00000
0FC00FC00000
0FC00FC00000
000000000000
000000000000
000000000000
0FFFFFC00000
0FFFFFC00000
0FFFFFC00000
000FC0000000
000FC0000000
000FC0000000
000FC0000000
000FC0000000
000FC0000000
000FC0000000
000FC0000000
000FC0000000
000FC0000000
000FC0000000
000FC0000000
0FFFFFC00000
0FFFFFC00000
0FFFFFC00000
000000000000
000000000000
000000000000
000000000000
000000000000
000000000000
ENDCHAR
STARTCHAR U+00CE
ENCODING 206
SWIDTH 1000 0
BBX 40 30 0 -6
DWIDTH 40 0
BITMAP
00FFFC000000
00FFFC000000
00FFFC000000
0FC00FC00000
0FC00FC00000
0FC00FC00000
0FFFFFC00000
0FFFFFC00000
0FFFFFC00000
000FC0000000
000FC0000000
000FC0000000
000FC0000000
000FC0000000
000FC0000000
000FC0000000
000FC0000000
000FC0000000
000FC0000000
000FC0000000
000FC0000000
0FFFFFC00000
0FFFFFC00000
0FFFFFC00000
000000000000
000000000000
000000000000
000000000000
000000000000
000000000000
ENDCHAR
STARTCHAR U+00CD
ENCODING 205
SWIDTH 1000 0
BBX 40 30 0 -6
DWIDTH 40 0
BITMAP
000FFC000000
000FFC000000
000FFC000000
0FFC00000000
0FFC00000000
0FFC00000000
0FFFFFC00000
0FFFFFC00000
0FFFFFC00000
000FC0000000
000FC0000000
000FC0000000
000FC0000000
000FC0000000
000FC0000000
000FC0000000
000FC0000000
000FC0000000
000FC0000000
000FC0000000
000FC0000000
0FFFFFC00000
0FFFFFC00000
0FFFFFC00000
000000000000
000000000000
000000000000
000000000000
000000000000
000000000000
ENDCHAR
STARTCHAR U+00CC
ENCODING 204
SWIDTH 1000 0
BBX 40 30 0 -6
DWIDTH 40 0
BITMAP
00FFC0000000
00FFC0000000
00FFC0000000
0000FFC00000
0000FFC00000
0000FFC00000
0FFFFFC00000
0FFFFFC00000
0FFFFFC00000
000FC0000000
000FC0000000
000FC0000000
000FC0000000
000FC0000000
000FC0000000
000FC0000000
000FC0000000
000FC0000000
000FC0000000
000FC0000000
000FC0000000
0FFFFFC00000
0FFFFFC00000
0FFFFFC00000
000000000000
000000000000
000000000000
000000000000
000000000000
000000000000
ENDCHAR
STARTCHAR U+00CB
ENCODING 203
SWIDTH 1000 0
BBX 40 30 0 -6
DWIDTH 40 0
BITMAP
0FC00FC00000
0FC00FC00000
0FC00FC00000
000000000000
000000000000
000000000000
FFFFFFFC0000
FFFFFFFC0000
FFFFFFFC0000
FC0000000000
FC0000000000
FC0000000000
FFFFFC000000
FFFFFC000000
FFFFFC000000
FC0000000000
FC0000000000
FC0000000000
FC0000000000
FC0000000000
FC0000000000
FFFFFFFC0000
FFFFFFFC0000
FFFFFFFC0000
000000000000
000000000000
000000000000
000000000000
000000000000
000000000000
ENDCHAR
STARTCHAR U+00CA
ENCODING 202
SWIDTH 1000 0
BBX 40 30 0 -6
DWIDTH 40 0
BITMAP
00FFFC000000
00FFFC000000
00FFFC000000
0FC00FC00000
0FC00FC00000
0FC00FC00000
FFFFFFFC0000
FFFFFFFC0000
FFFFFFFC0000
FC0000000000
FC0000000000
FC0000000000
FFFFC0000000
FFFFC0000000
FFFFC0000000
FC0000000000
FC0000000000
FC0000000000
FC0000000000
FC0000000000
FC0000000000
FFFFFFFC0000
FFFFFFFC0000
FFFFFFFC0000
000000000000
000000000000
000000000000
000000000000
000000000000
000000000000
ENDCHAR
STARTCHAR U+00C9
ENCODING 201
SWIDTH 1000 0
BBX 40 30 0 -6
DWIDTH 40 0
BITMAP
0000FFC00000
0000FFC00000
0000FFC00000
00FFC0000000
00FFC0000000
00FFC0000000
FFFFFFFC0000
FFFFFFFC0000
FFFFFFFC0000
FC0000000000
FC0000000000
FC0000000000
FFFFFC000000
FFFFFC000000
FFFFFC000000
FC0000000000
FC0000000000
FC0000000000
FC0000000000
FC0000000000
FC0000000000
FFFFFFFC0000
FFFFFFFC0000
FFFFFFFC0000
000000000000
000000000000
000000000000
000000000000
000000000000
000000000000
ENDCHAR
STARTCHAR U+00C8
ENCODING 200
SWIDTH 1000 0
BBX 40 30 0 -6
DWIDTH 40 0
BITMAP
0FFC00000000
0FFC00000000
0FFC00000000
000FFC000000
000FFC000000
000FFC000000
FFFFFFFC0000
FFFFFFFC0000
FFFFFFFC0000
FC0000000000
FC0000000000
FC0000000000
FFFFFC000000
FFFFFC000000
FFFFFC000000
FC0000000000
FC0000000000
FC0000000000
FC0000000000
FC0000000000
FC0000000000
FFFFFFFC0000
FFFFFFFC0000
FFFFFFFC0000
000000000000
000000000000
000000000000
000000000000
000000000000
000000000000
ENDCHAR
STARTCHAR U+00C7
ENCODING 199
SWIDTH 1000 0
BBX 40 30 0 -6
DWIDTH 40 0
BITMAP
000000000000
000000000000
000000000000
00FFFFC00000
00FFFFC00000
00FFFFC00000
0FC000FC0000
0FC000FC0000
0FC000FC0000
FC0000000000
FC0000000000
FC0000000000
FC0000000000
FC0000000000
FC0000000000
FC0000000000
FC0000000000
FC0000000000
0FC000FC0000
0FC000FC0000
0FC000FC0000
00FFFFC00000
00FFFFC00000
00FFFFC00000
0000FC000000
0000FC000000
0000FC000000
00FFFC000000
00FFFC000000
00FFFC000000
ENDCHAR
STARTCHAR U+00C6
ENCODING 198
SWIDTH 1000 0
BBX 40 30 0 -6
DWIDTH 40 0
BITMAP
000000000000
000000000000
000000000000
00FFFFFC0000
00FFFFFC0000
00FFFFFC0000
0FCFC0000000
0FCFC0000000
0FCFC0000000
FC0FC0000000
FC0FC0000000
FC0FC0000000
FC0FFFC00000
FC0FFFC00000
FC0FFFC00000
FFFFC0000000
FFFFC0000000
FFFFC0000000
FC0FC0000000
FC0FC0000000
FC0FC0000000
FC0FFFFC0000
FC0FFFFC0000
FC0FFFFC0000
000000000000
000000000000
000000000000
000000000000
000000000000
000000000000
ENDCHAR
STARTCHAR U+00C5
ENCODING 197
SWIDTH 1000 0
BBX 40 30 0 -6
DWIDTH 40 0
BITMAP
00FFFC000000
00FFFC000000
00FFFC000000
0FC00FC00000
0FC00FC00000
0FC00FC00000
00FFFC000000
00FFFC000000
00FFFC000000
00FFFC000000
00FFFC000000
00FFFC000000
0FC00FC00000
0FC00FC00000
0FC00FC00000
FFFFFFFC0000
FFFFFFFC0000
FFFFFFFC0000
FC0000FC0000
FC0000FC0000
FC0000FC0000
FC0000FC0000
FC0000FC0000
FC0000FC0000
000000000000
000000000000
000000000000
000000000000
000000000000
000000000000
ENDCHAR
STARTCHAR U+00C4
ENCODING 196
SWIDTH 1000 0
BBX 40 30 0 -6
DWIDTH 40 0
BITMAP
0FC00FC00000
0FC00FC00000
0FC00FC00000
000000000000
000000000000
000000000000
000FC0000000
000FC0000000
000FC0000000
00FCFC000000
00FCFC000000
00FCFC000000
0FC00FC00000
0FC00FC00000
0FC00FC00000
FFFFFFFC0000
FFFFFFFC0000
FFFFFFFC0000
FC0000FC0000
FC0000FC0000
FC0000FC0000
FC0000FC0000
FC0000FC0000
FC0000FC0000
000000000000
000000000000
000000000000
000000000000
000000000000
000000000000
ENDCHAR
STARTCHAR U+00C3
ENCODING 195
SWIDTH 1000 0
BBX 40 30 0 -6
DWIDTH 40 0
BITMAP
00FFC0FC0000
00FFC0FC0000
00FFC0FC0000
0FC0FFC00000
0FC0FFC00000
0FC0FFC00000
000FC0000000
000FC0000000
000FC0000000
00FCFC000000
00FCFC000000
00FCFC000000
0FC00FC00000
0FC00FC00000
0FC00FC00000
FFFFFFFC0000
FFFFFFFC0000
FFFFFFFC0000
FC0000FC0000
FC0000FC0000
FC0000FC0000
FC0000FC0000
FC0000FC0000
FC0000FC0000
000000000000
000000000000
000000000000
000000000000
000000000000
000000000000
ENDCHAR
STARTCHAR U+00C2
ENCODING 194
SWIDTH 1000 0
BBX 40 30 0 -6
DWIDTH 40 0
BITMAP
00FFFC000000
00FFFC000000
00FFFC000000
0FC00FC00000
0FC00FC00000
0FC00FC00000
000FC0000000
000FC0000000
000FC0000000
00FCFC000000
00FCFC000000
00FCFC000000
0FC00FC00000
0FC00FC00000
0FC00FC00000
FFFFFFFC0000
FFFFFFFC0000
FFFFFFFC0000
FC0000FC0000
FC0000FC0000
FC0000FC0000
FC0000FC0000
FC0000FC0000
FC0000FC0000
000000000000
000000000000
000000000000
000000000000
000000000000
000000000000
ENDCHAR
STARTCHAR U+00C1
ENCODING 193
SWIDTH 1000 0
BBX 40 30 0 -6
DWIDTH 40 0
BITMAP
000FFC000000
000FFC000000
000FFC000000
0FFC00000000
0FFC00000000
0FFC00000000
000FC0000000
000FC0000000
000FC0000000
00FCFC000000
00FCFC000000
00FCFC000000
0FC00FC00000
0FC00FC00000
0FC00FC00000
FFFFFFFC0000
FFFFFFFC0000
FFFFFFFC0000
FC0000FC0000
FC0000FC0000
FC0000FC0000
FC0000FC0000
FC0000FC0000
FC0000FC0000
000000000000
000000000000
000000000000
000000000000
000000000000
000000000000
ENDCHAR
STARTCHAR U+00C0
ENCODING 192
SWIDTH 1000 0
BBX 40 30 0 -6
DWIDTH 40 0
BITMAP
00FFC0000000
00FFC0000000
00FFC0000000
0000FFC00000
0000FFC00000
0000FFC00000
000FC0000000
000FC0000000
000FC0000000
00FCFC000000
00FCFC000000
00FCFC000000
0FC00FC00000
0FC00FC00000
0FC00FC00000
FFFFFFFC0000
FFFFFFFC0000
FFFFFFFC0000
FC0000FC0000
FC0000FC0000
FC0000FC0000
FC0000FC0000
FC0000FC0000
FC0000FC0000
000000000000
000000000000
000000000000
000000000000
000000000000
000000000000
ENDCHAR
STARTCHAR U+00BF
ENCODING 191
SWIDTH 1000 0
BBX 40 30 0 -6
DWIDTH 40 0
BITMAP
000000000000
000000000000
000000000000
000FC0000000
000FC0000000
000FC0000000
000000000000
000000000000
000000000000
000FC0000000
000FC0000000
000FC0000000
000FC0000000
000FC0000000
000FC0000000
0FFC00000000
0FFC00000000
0FFC00000000
FC0000FC0000
FC0000FC0000
FC0000FC0000
0FFFFFC00000
0FFFFFC00000
0FFFFFC00000
000000000000
000000000000
000000000000
000000000000
000000000000
000000000000
ENDCHAR
STARTCHAR U+00BE
ENCODING 190
SWIDTH 1000 0
BBX 40 30 0 -6
DWIDTH 40 0
BITMAP
000000000000
000000000000
000000000000
FFFC00000000
FFFC00000000
FFFC00000000
FC0FC0000000
FC0FC0000000
FC0FC0000000
FFFC00000000
FFFC00000000
FFFC00000000
FC0FC0000000
FC0FC0000000
FC0FC0000000
FFFFFFFC0000
FFFFFFFC0000
FFFFFFFC0000
000FC0000000
000FC0000000
000FC0000000
000FFFC00000
000FFFC00000
000FFFC00000
000FC0000000
000FC0000000
000FC0000000
000FFFFC0000
000FFFFC0000
000FFFFC0000
ENDCHAR
STARTCHAR U+00BD
ENCODING 189
SWIDTH 1000 0
BBX 40 30 0 -6
DWIDTH 40 0
BITMAP
000000000000
000000000000
000000000000
0FC000000000
0FC000000000
0FC000000000
FFC00FC00000
FFC00FC00000
FFC00FC00000
0FC0FC000000
0FC0FC000000
0FC0FC000000
0FCFC0000000
0FCFC0000000
0FCFC0000000
00FCFFC00000
00FCFFC00000
00FCFFC00000
0FCFC0FC0000
0FCFC0FC0000
0FCFC0FC0000
FC000FC00000
FC000FC00000
FC000FC00000
0000FC000000
0000FC000000
0000FC000000
000FFFFC0000
000FFFFC0000
000FFFFC0000
ENDCHAR
STARTCHAR U+00BC
ENCODING 188
SWIDTH 1000 0
BBX 40 30 0 -6
DWIDTH 40 0
BITMAP
000000000000
000000000000
000000000000
0FC000000000
0FC000000000
0FC000000000
FFC00FC00000
FFC00FC00000
FFC00FC00000
0FC0FC000000
0FC0FC000000
0FC0FC000000
0FCFC0000000
0FCFC0000000
0FCFC0000000
00FC0FC00000
00FC0FC00000
00FC0FC00000
0FC0FFC00000
0FC0FFC00000
0FC0FFC00000
FC0FCFC00000
FC0FCFC00000
FC0FCFC00000
00FFFFFC0000
00FFFFFC0000
00FFFFFC0000
00000FC00000
00000FC00000
00000FC00000
ENDCHAR
STARTCHAR U+00BB
ENCODING 187
SWIDTH 1000 0
BBX 40 30 0 -6
DWIDTH 40 0
BITMAP
000000000000
000000000000
000000000000
FC0FC0000000
FC0FC0000000
FC0FC0000000
0FC0FC000000
0FC0FC000000
0FC0FC000000
00FC0FC00000
00FC0FC00000
00FC0FC00000
000FC0FC0000
000FC0FC0000
000FC0FC0000
00FC0FC00000
00FC0FC00000
00FC0FC00000
0FC0FC000000
0FC0FC000000
0FC0FC000000
FC0FC0000000
FC0FC0000000
FC0FC0000000
000000000000
000000000000
000000000000
000000000000
000000000000
000000000000
ENDCHAR
STARTCHAR U+00BA
ENCODING 186
SWIDTH 1000 0
BBX 40 30 0 -6
DWIDTH 40 0
BITMAP
000000000000
000000000000
000000000000
0FFFFFC00000
0FFFFFC00000
0FFFFFC00000
FC0000FC0000
FC0000FC0000
FC0000FC0000
FC0000FC0000
FC0000FC0000
FC0000FC0000
FC0000FC0000
FC0000FC0000
FC0000FC0000
0FFFFFC00000
0FFFFFC00000
0FFFFFC00000
000000000000
000000000000
000000000000
FFFFFFFC0000
FFFFFFFC0000
FFFFFFFC0000
000000000000
000000000000
000000000000
000000000000
000000000000
000000000000
ENDCHAR
STARTCHAR U+00B9
ENCODING 185
SWIDTH 1000 0
BBX 40 30 0 -6
DWIDTH 40 0
BITMAP
000FC0000000
000FC0000000
000FC0000000
00FFC0000000
00FFC0000000
00FFC0000000
000FC0000000
000FC0000000
000FC0000000
000FC0000000
000FC0000000
000FC0000000
00FFFC000000
00FFFC000000
00FFFC000000
000000000000
000000000000
000000000000
000000000000
000000000000
000000000000
000000000000
000000000000
000000000000
000000000000
000000000000
000000000000
000000000000
000000000000
000000000000
ENDCHAR
STARTCHAR U+00B8
ENCODING 184
SWIDTH 1000 0
BBX 40 30 0 -6
DWIDTH 40 0
BITMAP
000000000000
000000000000
000000000000
FFFC00000000
FFFC00000000
FFFC00000000
FC0FC0000000
FC0FC0000000
FC0FC0000000
FFFC00000000
FFFC00000000
FFFC00000000
FC0FC0000000
FC0FC0000000
FC0FC0000000
FFFCFFC00000
FFFCFFC00000
FFFCFFC00000
000FC0FC0000
000FC0FC0000
000FC0FC0000
0000FFC00000
0000FFC00000
0000FFC00000
000FC0FC0000
000FC0FC0000
000FC0FC0000
0000FFC00000
0000FFC00000
0000FFC00000
ENDCHAR
STARTCHAR U+00B7
ENCODING 183
SWIDTH 1000 0
BBX 40 30 0 -6
DWIDTH 40 0
BITMAP
000000000000
000000000000
000000000000
000000000000
000000000000
000000000000
000000000000
000000000000
000000000000
00FFC0000000
00FFC0000000
00FFC0000000
00FFC0000000
00FFC0000000
00FFC0000000
000000000000
000000000000
000000000000
000000000000
000000000000
000000000000
000000000000
000000000000
000000000000
000000000000
000000000000
000000000000
000000000000
000000000000
000000000000
ENDCHAR
STARTCHAR U+00B6
ENCODING 182
SWIDTH 1000 0
BBX 40 30 0 -6
DWIDTH 40 0
BITMAP
000000000000
000000000000
000000000000
0FFFFFFC0000
0FFFFFFC0000
0FFFFFFC0000
FFC0FCFC0000
FFC0FCFC0000
FFC0FCFC0000
FFC0FCFC0000
FFC0FCFC0000
FFC0FCFC0000
0FFFFFFC0000
0FFFFFFC0000
0FFFFFFC0000
0000FCFC0000
0000FCFC0000
0000FCFC0000
0000FCFC0000
0000FCFC0000
0000FCFC0000
0000FCFC0000
0000FCFC0000
0000FCFC0000
000000000000
000000000000
000000000000
000000000000
000000000000
000000000000
ENDCHAR
STARTCHAR U+00B5
ENCODING 181
SWIDTH 1000 0
BBX 40 30 0 -6
DWIDTH 40 0
BITMAP
000000000000
000000000000
000000000000
000000000000
000000000000
000000000000
000000000000
000000000000
000000000000
0FC000FC0000
0FC000FC0000
0FC000FC0000
0FC000FC0000
0FC000FC0000
0FC000FC0000
0FC000FC0000
0FC000FC0000
0FC000FC0000
0FFC0FFC0000
0FFC0FFC0000
0FFC0FFC0000
0FCFFCFC0000
0FCFFCFC0000
0FCFFCFC0000
0FC000000000
0FC000000000
0FC000000000
FC0000000000
FC0000000000
FC0000000000
ENDCHAR
STARTCHAR U+00B4
ENCODING 180
SWIDTH 1000 0
BBX 40 30 0 -6
DWIDTH 40 0
BITMAP
000000000000
000000000000
000000000000
FFFC00000000
FFFC00000000
FFFC00000000
FC0FC0000000
FC0FC0000000
FC0FC0000000
FFFC00000000
FFFC00000000
FFFC00000000
FC0FC0000000
FC0FC0000000
FC0FC0000000
FFFC0FC00000
FFFC0FC00000
FFFC0FC00000
0000FFC00000
0000FFC00000
0000FFC00000
000FCFC00000
000FCFC00000
000FCFC00000
00FFFFFC0000
00FFFFFC0000
00FFFFFC0000
00000FC00000
00000FC00000
00000FC00000
ENDCHAR
STARTCHAR U+00B3
ENCODING 179
SWIDTH 1000 0
BBX 40 30 0 -6
DWIDTH 40 0
BITMAP
0FFFFFC00000
0FFFFFC00000
0FFFFFC00000
00000FC00000
00000FC00000
00000FC00000
000FFC000000
000FFC000000
000FFC000000
00000FC00000
00000FC00000
00000FC00000
0FFFFC000000
0FFFFC000000
0FFFFC000000
000000000000
000000000000
000000000000
000000000000
000000000000
000000000000
000000000000
000000000000
000000000000
000000000000
000000000000
000000000000
000000000000
000000000000
000000000000
ENDCHAR
STARTCHAR U+00B2
ENCODING 178
SWIDTH 1000 0
BBX 40 30 0 -6
DWIDTH 40 0
BITMAP
00FFFC000000
00FFFC000000
00FFFC000000
0FC00FC00000
0FC00FC00000
0FC00FC00000
000FFC000000
000FFC000000
000FFC000000
00FC00000000
00FC00000000
00FC00000000
0FFFFFC00000
0FFFFFC00000
0FFFFFC00000
000000000000
000000000000
000000000000
000000000000
000000000000
000000000000
000000000000
000000000000
000000000000
000000000000
000000000000
000000000000
000000000000
000000000000
000000000000
ENDCHAR
STARTCHAR U+00B1
ENCODING 177
SWIDTH 1000 0
BBX 40 30 0 -6
DWIDTH 40 0
BITMAP
000000000000
000000000000
000000000000
000000000000
000000000000
000000000000
000FC0000000
000FC0000000
000FC0000000
000FC0000000
000FC0000000
000FC0000000
FFFFFFFC0000
FFFFFFFC0000
FFFFFFFC0000
000FC0000000
000FC0000000
000FC0000000
000FC0000000
000FC0000000
000FC0000000
FFFFFFFC0000
FFFFFFFC0000
FFFFFFFC0000
000000000000
000000000000
000000000000
000000000000
000000000000
000000000000
ENDCHAR
STARTCHAR U+00B0
ENCODING 176
SWIDTH 1000 0
BBX 40 30 0 -6
DWIDTH 40 0
BITMAP
000000000000
000000000000
000000000000
00FFFC000000
00FFFC000000
00FFFC000000
0FC00FC00000
0FC00FC00000
0FC00FC00000
00FFFC000000
00FFFC000000
00FFFC000000
000000000000
000000000000
000000000000
000000000000
000000000000
000000000000
000000000000
000000000000
000000000000
000000000000
000000000000
000000000000
000000000000
000000000000
000000000000
000000000000
000000000000
000000000000
ENDCHAR
STARTCHAR U+00AF
ENCODING 175
SWIDTH 1000 0
BBX 40 30 0 -6
DWIDTH 40 0
BITMAP
000000000000
000000000000
000000000000
0FFC00000000
0FFC00000000
0FFC00000000
FC0FC0000000
FC0FC0000000
FC0FC0000000
FFFFC0000000
FFFFC0000000
FFFFC0000000
FC0FC0000000
FC0FC0000000
FC0FC0000000
FC0FFFFC0000
FC0FFFFC0000
FC0FFFFC0000
000FC0000000
000FC0000000
000FC0000000
000FFFC00000
000FFFC00000
000FFFC00000
000FC0000000
000FC0000000
000FC0000000
000FC0000000
000FC0000000
000FC0000000
ENDCHAR
STARTCHAR U+00AE
ENCODING 174
SWIDTH 1000 0
BBX 40 30 0 -6
DWIDTH 40 0
BITMAP
000000000000
000000000000
000000000000
0FFC00000000
0FFC00000000
0FFC00000000
FC0FC0000000
FC0FC0000000
FC0FC0000000
FFFFC0000000
FFFFC0000000
FFFFC0000000
FC0FC0000000
FC0FC0000000
FC0FC0000000
FC0FFFFC0000
FC0FFFFC0000
FC0FFFFC0000
000FC0000000
000FC0000000
000FC0000000
000FFFC00000
000FFFC00000
000FFFC00000
000FC0000000
000FC0000000
000FC0000000
000FFFFC0000
000FFFFC0000
000FFFFC0000
ENDCHAR
STARTCHAR U+00AC
ENCODING 172
SWIDTH 1000 0
BBX 40 30 0 -6
DWIDTH 40 0
BITMAP
000000000000
000000000000
000000000000
0FFC00000000
0FFC00000000
0FFC00000000
FC0FC0000000
FC0FC0000000
FC0FC0000000
FFFFC0000000
FFFFC0000000
FFFFC0000000
FC0FC0000000
FC0FC0000000
FC0FC0000000
FC0FFFFC0000
FC0FFFFC0000
FC0FFFFC0000
000FC0000000
000FC0000000
000FC0000000
000FC0000000
000FC0000000
000FC0000000
000FC0000000
000FC0000000
000FC0000000
0000FFFC0000
0000FFFC0000
0000FFFC0000
ENDCHAR
STARTCHAR U+00AB
ENCODING 171
SWIDTH 1000 0
BBX 40 30 0 -6
DWIDTH 40 0
BITMAP
000000000000
000000000000
000000000000
000FC0FC0000
000FC0FC0000
000FC0FC0000
00FC0FC00000
00FC0FC00000
00FC0FC00000
0FC0FC000000
0FC0FC000000
0FC0FC000000
FC0FC0000000
FC0FC0000000
FC0FC0000000
0FC0FC000000
0FC0FC000000
0FC0FC000000
00FC0FC00000
00FC0FC00000
00FC0FC00000
000FC0FC0000
000FC0FC0000
000FC0FC0000
000000000000
000000000000
000000000000
000000000000
000000000000
000000000000
ENDCHAR
STARTCHAR U+00AA
ENCODING 170
SWIDTH 1000 0
BBX 40 30 0 -6
DWIDTH 40 0
BITMAP
000000000000
000000000000
000000000000
0FFFFFC00000
0FFFFFC00000
0FFFFFC00000
000000FC0000
000000FC0000
000000FC0000
0FFFFFFC0000
0FFFFFFC0000
0FFFFFFC0000
FC000FFC0000
FC000FFC0000
FC000FFC0000
0FFFFCFC0000
0FFFFCFC0000
0FFFFCFC0000
000000000000
000000000000
000000000000
FFFFFFFC0000
FFFFFFFC0000
FFFFFFFC0000
000000000000
000000000000
000000000000
000000000000
000000000000
000000000000
ENDCHAR
STARTCHAR U+00A9
ENCODING 169
SWIDTH 1000 0
BBX 40 30 0 -6
DWIDTH 40 0
BITMAP
000000000000
000000000000
000000000000
00FFFC000000
00FFFC000000
00FFFC000000
0FC00FC00000
0FC00FC00000
0FC00FC00000
FC0FFCFC0000
FC0FFCFC0000
FC0FFCFC0000
FCFC00FC0000
FCFC00FC0000
FCFC00FC0000
FCFC00FC0000
FCFC00FC0000
FCFC00FC0000
FC0FFCFC0000
FC0FFCFC0000
FC0FFCFC0000
0FC00FC00000
0FC00FC00000
0FC00FC00000
00FFFC000000
00FFFC000000
00FFFC000000
000000000000
000000000000
000000000000
ENDCHAR
STARTCHAR U+00A4
ENCODING 164
SWIDTH 1000 0
BBX 40 30 0 -6
DWIDTH 40 0
BITMAP
000000000000
000000000000
000000000000
000000000000
000000000000
000000000000
FC0000FC0000
FC0000FC0000
FC0000FC0000
0FFFFFC00000
0FFFFFC00000
0FFFFFC00000
0FC00FC00000
0FC00FC00000
0FC00FC00000
0FFFFFC00000
0FFFFFC00000
0FFFFFC00000
FC0000FC0000
FC0000FC0000
FC0000FC0000
000000000000
000000000000
000000000000
000000000000
000000000000
000000000000
000000000000
000000000000
000000000000
ENDCHAR
STARTCHAR U+00A7
ENCODING 167
SWIDTH 1000 0
BBX 40 30 0 -6
DWIDTH 40 0
BITMAP
000000000000
000000000000
000000000000
00FFFFC00000
00FFFFC00000
00FFFFC00000
0FC000000000
0FC000000000
0FC000000000
00FFFC000000
00FFFC000000
00FFFC000000
0FC00FC00000
0FC00FC00000
0FC00FC00000
00FFFC000000
00FFFC000000
00FFFC000000
00000FC00000
00000FC00000
00000FC00000
0FFFFC000000
0FFFFC000000
0FFFFC000000
000000000000
000000000000
000000000000
000000000000
000000000000
000000000000
ENDCHAR
STARTCHAR U+00A6
ENCODING 166
SWIDTH 1000 0
BBX 40 30 0 -6
DWIDTH 40 0
BITMAP
000000000000
000000000000
000000000000
0FFC00000000
0FFC00000000
0FFC00000000
FC0FC0000000
FC0FC0000000
FC0FC0000000
FFFFC0000000
FFFFC0000000
FFFFC0000000
FC0FC0000000
FC0FC0000000
FC0FC0000000
FC0FCFFC0000
FC0FCFFC0000
FC0FCFFC0000
0000FC000000
0000FC000000
0000FC000000
000FFFC00000
000FFFC00000
000FFFC00000
000FC0FC0000
000FC0FC0000
000FC0FC0000
0000FFC00000
0000FFC00000
0000FFC00000
ENDCHAR
STARTCHAR U+00A5
ENCODING 165
SWIDTH 1000 0
BBX 40 30 0 -6
DWIDTH 40 0
BITMAP
000000000000
000000000000
000000000000
FC0000FC0000
FC0000FC0000
FC0000FC0000
0FC00FC00000
0FC00FC00000
0FC00FC00000
00FCFC000000
00FCFC000000
00FCFC000000
000FC0000000
000FC0000000
000FC0000000
FFFFFFFC0000
FFFFFFFC0000
FFFFFFFC0000
000FC0000000
000FC0000000
000FC0000000
000FC0000000
000FC0000000
000FC0000000
000000000000
000000000000
000000000000
000000000000
000000000000
000000000000
ENDCHAR
STARTCHAR U+00A8
ENCODING 168
SWIDTH 1000 0
BBX 40 30 0 -6
DWIDTH 40 0
BITMAP
000000000000
000000000000
000000000000
0FFC00000000
0FFC00000000
0FFC00000000
FC0FC0000000
FC0FC0000000
FC0FC0000000
FFFFC0000000
FFFFC0000000
FFFFC0000000
FC0FC0000000
FC0FC0000000
FC0FC0000000
FC0FCFC00000
FC0FCFC00000
FC0FCFC00000
0000FFC00000
0000FFC00000
0000FFC00000
000FCFC00000
000FCFC00000
000FCFC00000
00FFFFFC0000
00FFFFFC0000
00FFFFFC0000
00000FC00000
00000FC00000
00000FC00000
ENDCHAR
STARTCHAR U+00A3
ENCODING 163
SWIDTH 1000 0
BBX 40 30 0 -6
DWIDTH 40 0
BITMAP
000000000000
000000000000
000000000000
000FFFC00000
000FFFC00000
000FFFC00000
00FC00FC0000
00FC00FC0000
00FC00FC0000
00FC00000000
00FC00000000
00FC00000000
FFFFFC000000
FFFFFC000000
FFFFFC000000
00FC00000000
00FC00000000
00FC00000000
0FFFFC000000
0FFFFC000000
0FFFFC000000
FCFC0FFC0000
FCFC0FFC0000
FCFC0FFC0000
0FC000000000
0FC000000000
0FC000000000
000000000000
000000000000
000000000000
ENDCHAR
STARTCHAR U+00A2
ENCODING 162
SWIDTH 1000 0
BBX 40 30 0 -6
DWIDTH 40 0
BITMAP
000000000000
000000000000
000000000000
000000000000
000000000000
000000000000
000FC0000000
000FC0000000
000FC0000000
0FFFFFC00000
0FFFFFC00000
0FFFFFC00000
FC0FC0FC0000
FC0FC0FC0000
FC0FC0FC0000
FC0FC0000000
FC0FC0000000
FC0FC0000000
FC0FC0FC0000
FC0FC0FC0000
FC0FC0FC0000
0FFFFFC00000
0FFFFFC00000
0FFFFFC00000
000FC0000000
000FC0000000
000FC0000000
000000000000
000000000000
000000000000
ENDCHAR
STARTCHAR U+00A1
ENCODING 161
SWIDTH 1000 0
BBX 40 30 0 -6
DWIDTH 40 0
BITMAP
000000000000
000000000000
000000000000
000FC0000000
000FC0000000
000FC0000000
000000000000
000000000000
000000000000
000FC0000000
000FC0000000
000FC0000000
000FC0000000
000FC0000000
000FC0000000
000FC0000000
000FC0000000
000FC0000000
000FC0000000
000FC0000000
000FC0000000
000FC0000000
000FC0000000
000FC0000000
000000000000
000000000000
000000000000
000000000000
000000000000
000000000000
ENDCHAR
STARTCHAR U+007F
ENCODING 127
SWIDTH 1000 0
BBX 40 30 0 -6
DWIDTH 40 0
BITMAP
000000000000
000000000000
000000000000
FFFC00000000
FFFC00000000
FFFC00000000
FC0FC0000000
FC0FC0000000
FC0FC0000000
FC0FC0000000
FC0FC0000000
FC0FC0000000
FC0FC0000000
FC0FC0000000
FC0FC0000000
FFFFFC000000
FFFFFC000000
FFFFFC000000
00FC00000000
00FC00000000
00FC00000000
00FC00000000
00FC00000000
00FC00000000
00FC00000000
00FC00000000
00FC00000000
00FC00000000
00FC00000000
00FC00000000
ENDCHAR
STARTCHAR U+007E
ENCODING 126
SWIDTH 1000 0
BBX 40 30 0 -6
DWIDTH 40 0
BITMAP
000000000000
000000000000
000000000000
0FFC00FC0000
0FFC00FC0000
0FFC00FC0000
FC0FC0FC0000
FC0FC0FC0000
FC0FC0FC0000
FC00FFC00000
FC00FFC00000
FC00FFC00000
000000000000
000000000000
000000000000
000000000000
000000000000
000000000000
000000000000
000000000000
000000000000
000000000000
000000000000
000000000000
000000000000
000000000000
000000000000
000000000000
000000000000
000000000000
ENDCHAR
STARTCHAR U+007D
ENCODING 125
SWIDTH 1000 0
BBX 40 30 0 -6
DWIDTH 40 0
BITMAP
000000000000
000000000000
000000000000
FFFC00000000
FFFC00000000
FFFC00000000
000FC0000000
000FC0000000
000FC0000000
00FC00000000
00FC00000000
00FC00000000
000FFC000000
000FFC000000
000FFC000000
00FC00000000
00FC00000000
00FC00000000
000FC0000000
000FC0000000
000FC0000000
FFFC00000000
FFFC00000000
FFFC00000000
000000000000
000000000000
000000000000
000000000000
000000000000
000000000000
ENDCHAR
STARTCHAR U+007C
ENCODING 124
SWIDTH 1000 0
BBX 40 30 0 -6
DWIDTH 40 0
BITMAP
000000000000
000000000000
000000000000
000FC0000000
000FC0000000
000FC0000000
000FC0000000
000FC0000000
000FC0000000
000FC0000000
000FC0000000
000FC0000000
000FC0000000
000FC0000000
000FC0000000
000FC0000000
000FC0000000
000FC0000000
000FC0000000
000FC0000000
000FC0000000
000FC0000000
000FC0000000
000FC0000000
000000000000
000000000000
000000000000
000000000000
000000000000
000000000000
ENDCHAR
STARTCHAR U+007B
ENCODING 123
SWIDTH 1000 0
BBX 40 30 0 -6
DWIDTH 40 0
BITMAP
000000000000
000000000000
000000000000
0000FFFC0000
0000FFFC0000
0000FFFC0000
000FC0000000
000FC0000000
000FC0000000
0000FC000000
0000FC000000
0000FC000000
00FFC0000000
00FFC0000000
00FFC0000000
0000FC000000
0000FC000000
0000FC000000
000FC0000000
000FC0000000
000FC0000000
0000FFFC0000
0000FFFC0000
0000FFFC0000
000000000000
000000000000
000000000000
000000000000
000000000000
000000000000
ENDCHAR
STARTCHAR U+007A
ENCODING 122
SWIDTH 1000 0
BBX 40 30 0 -6
DWIDTH 40 0
BITMAP
000000000000
000000000000
000000000000
000000000000
000000000000
000000000000
000000000000
000000000000
000000000000
FFFFFFFC0000
FFFFFFFC0000
FFFFFFFC0000
00000FC00000
00000FC00000
00000FC00000
000FFC000000
000FFC000000
000FFC000000
00FC00000000
00FC00000000
00FC00000000
FFFFFFFC0000
FFFFFFFC0000
FFFFFFFC0000
000000000000
000000000000
000000000000
000000000000
000000000000
000000000000
ENDCHAR
STARTCHAR U+0079
ENCODING 121
SWIDTH 1000 0
BBX 40 30 0 -6
DWIDTH 40 0
BITMAP
000000000000
000000000000
000000000000
000000000000
000000000000
000000000000
000000000000
000000000000
000000000000
FC000FC00000
FC000FC00000
FC000FC00000
FC000FC00000
FC000FC00000
FC000FC00000
FC00FFC00000
FC00FFC00000
FC00FFC00000
0FFFCFC00000
0FFFCFC00000
0FFFCFC00000
00000FC00000
00000FC00000
00000FC00000
FC000FC00000
FC000FC00000
FC000FC00000
0FFFFC000000
0FFFFC000000
0FFFFC000000
ENDCHAR
STARTCHAR U+0078
ENCODING 120
SWIDTH 1000 0
BBX 40 30 0 -6
DWIDTH 40 0
BITMAP
000000000000
000000000000
000000000000
000000000000
000000000000
000000000000
000000000000
000000000000
000000000000
FC000FC00000
FC000FC00000
FC000FC00000
0FC0FC000000
0FC0FC000000
0FC0FC000000
00FFC0000000
00FFC0000000
00FFC0000000
0FC0FC000000
0FC0FC000000
0FC0FC000000
FC000FC00000
FC000FC00000
FC000FC00000
000000000000
000000000000
000000000000
000000000000
000000000000
000000000000
ENDCHAR
STARTCHAR U+0077
ENCODING 119
SWIDTH 1000 0
BBX 40 30 0 -6
DWIDTH 40 0
BITMAP
000000000000
000000000000
000000000000
000000000000
000000000000
000000000000
000000000000
000000000000
000000000000
FC0000FC0000
FC0000FC0000
FC0000FC0000
FC0000FC0000
FC0000FC0000
FC0000FC0000
FC0FC0FC0000
FC0FC0FC0000
FC0FC0FC0000
FCFCFCFC0000
FCFCFCFC0000
FCFCFCFC0000
0FC00FC00000
0FC00FC00000
0FC00FC00000
000000000000
000000000000
000000000000
000000000000
000000000000
000000000000
ENDCHAR
STARTCHAR U+0076
ENCODING 118
SWIDTH 1000 0
BBX 40 30 0 -6
DWIDTH 40 0
BITMAP
000000000000
000000000000
000000000000
000000000000
000000000000
000000000000
000000000000
000000000000
000000000000
FC0000FC0000
FC0000FC0000
FC0000FC0000
FC0000FC0000
FC0000FC0000
FC0000FC0000
0FC00FC00000
0FC00FC00000
0FC00FC00000
00FCFC000000
00FCFC000000
00FCFC000000
000FC0000000
000FC0000000
000FC0000000
000000000000
000000000000
000000000000
000000000000
000000000000
000000000000
ENDCHAR
STARTCHAR U+0075
ENCODING 117
SWIDTH 1000 0
BBX 40 30 0 -6
DWIDTH 40 0
BITMAP
000000000000
000000000000
000000000000
000000000000
000000000000
000000000000
000000000000
000000000000
000000000000
FC000FC00000
FC000FC00000
FC000FC00000
FC000FC00000
FC000FC00000
FC000FC00000
FC000FC00000
FC000FC00000
FC000FC00000
FC000FC00000
FC000FC00000
FC000FC00000
0FFFFCFC0000
0FFFFCFC0000
0FFFFCFC0000
000000000000
000000000000
000000000000
000000000000
000000000000
000000000000
ENDCHAR
STARTCHAR U+0074
ENCODING 116
SWIDTH 1000 0
BBX 40 30 0 -6
DWIDTH 40 0
BITMAP
000000000000
000000000000
000000000000
00FC00000000
00FC00000000
00FC00000000
00FC00000000
00FC00000000
00FC00000000
FFFFFC000000
FFFFFC000000
FFFFFC000000
00FC00000000
00FC00000000
00FC00000000
00FC00000000
00FC00000000
00FC00000000
00FC0FC00000
00FC0FC00000
00FC0FC00000
000FFC000000
000FFC000000
000FFC000000
000000000000
000000000000
000000000000
000000000000
000000000000
000000000000
ENDCHAR
STARTCHAR U+0073
ENCODING 115
SWIDTH 1000 0
BBX 40 30 0 -6
DWIDTH 40 0
BITMAP
000000000000
000000000000
000000000000
000000000000
000000000000
000000000000
000000000000
000000000000
000000000000
0FFFFFC00000
0FFFFFC00000
0FFFFFC00000
FC0000000000
FC0000000000
FC0000000000
0FFFFFC00000
0FFFFFC00000
0FFFFFC00000
000000FC0000
000000FC0000
000000FC0000
FFFFFFC00000
FFFFFFC00000
FFFFFFC00000
000000000000
000000000000
000000000000
000000000000
000000000000
000000000000
ENDCHAR
STARTCHAR U+0072
ENCODING 114
SWIDTH 1000 0
BBX 40 30 0 -6
DWIDTH 40 0
BITMAP
000000000000
000000000000
000000000000
000000000000
000000000000
000000000000
000000000000
000000000000
000000000000
FC0FFFC00000
FC0FFFC00000
FC0FFFC00000
0FFC00FC0000
0FFC00FC0000
0FFC00FC0000
0FC000000000
0FC000000000
0FC000000000
0FC000000000
0FC000000000
0FC000000000
0FC000000000
0FC000000000
0FC000000000
000000000000
000000000000
000000000000
000000000000
000000000000
000000000000
ENDCHAR
STARTCHAR U+0071
ENCODING 113
SWIDTH 1000 0
BBX 40 30 0 -6
DWIDTH 40 0
BITMAP
000000000000
000000000000
000000000000
000000000000
000000000000
000000000000
000000000000
000000000000
000000000000
0FFFFCFC0000
0FFFFCFC0000
0FFFFCFC0000
FC000FFC0000
FC000FFC0000
FC000FFC0000
FC000FFC0000
FC000FFC0000
FC000FFC0000
0FFFFCFC0000
0FFFFCFC0000
0FFFFCFC0000
000000FC0000
000000FC0000
000000FC0000
000000FC0000
000000FC0000
000000FC0000
000000FC0000
000000FC0000
000000FC0000
ENDCHAR
STARTCHAR U+0070
ENCODING 112
SWIDTH 1000 0
BBX 40 30 0 -6
DWIDTH 40 0
BITMAP
000000000000
000000000000
000000000000
000000000000
000000000000
000000000000
000000000000
000000000000
000000000000
FCFFFFC00000
FCFFFFC00000
FCFFFFC00000
FFC000FC0000
FFC000FC0000
FFC000FC0000
FFC000FC0000
FFC000FC0000
FFC000FC0000
FCFFFFC00000
FCFFFFC00000
FCFFFFC00000
FC0000000000
FC0000000000
FC0000000000
FC0000000000
FC0000000000
FC0000000000
FC0000000000
FC0000000000
FC0000000000
ENDCHAR
STARTCHAR U+006f
ENCODING 111
SWIDTH 1000 0
BBX 40 30 0 -6
DWIDTH 40 0
BITMAP
000000000000
000000000000
000000000000
000000000000
000000000000
000000000000
000000000000
000000000000
000000000000
0FFFFFC00000
0FFFFFC00000
0FFFFFC00000
FC0000FC0000
FC0000FC0000
FC0000FC0000
FC0000FC0000
FC0000FC0000
FC0000FC0000
FC0000FC0000
FC0000FC0000
FC0000FC0000
0FFFFFC00000
0FFFFFC00000
0FFFFFC00000
000000000000
000000000000
000000000000
000000000000
000000000000
000000000000
ENDCHAR
STARTCHAR U+006e
ENCODING 110
SWIDTH 1000 0
BBX 40 30 0 -6
DWIDTH 40 0
BITMAP
000000000000
000000000000
000000000000
000000000000
000000000000
000000000000
000000000000
000000000000
000000000000
FCFFFFC00000
FCFFFFC00000
FCFFFFC00000
FFC000FC0000
FFC000FC0000
FFC000FC0000
FC0000FC0000
FC0000FC0000
FC0000FC0000
FC0000FC0000
FC0000FC0000
FC0000FC0000
FC0000FC0000
FC0000FC0000
FC0000FC0000
000000000000
000000000000
000000000000
000000000000
000000000000
000000000000
ENDCHAR
STARTCHAR U+006d
ENCODING 109
SWIDTH 1000 0
BBX 40 30 0 -6
DWIDTH 40 0
BITMAP
000000000000
000000000000
000000000000
000000000000
000000000000
000000000000
000000000000
000000000000
000000000000
FFC00FC00000
FFC00FC00000
FFC00FC00000
FCFCFCFC0000
FCFCFCFC0000
FCFCFCFC0000
FC0FC0FC0000
FC0FC0FC0000
FC0FC0FC0000
FC0FC0FC0000
FC0FC0FC0000
FC0FC0FC0000
FC0000FC0000
FC0000FC0000
FC0000FC0000
000000000000
000000000000
000000000000
000000000000
000000000000
000000000000
ENDCHAR
STARTCHAR U+006c
ENCODING 108
SWIDTH 1000 0
BBX 40 30 0 -6
DWIDTH 40 0
BITMAP
000000000000
000000000000
000000000000
00FFC0000000
00FFC0000000
00FFC0000000
000FC0000000
000FC0000000
000FC0000000
000FC0000000
000FC0000000
000FC0000000
000FC0000000
000FC0000000
000FC0000000
000FC0000000
000FC0000000
000FC0000000
000FC0000000
000FC0000000
000FC0000000
00FFFC000000
00FFFC000000
00FFFC000000
000000000000
000000000000
000000000000
000000000000
000000000000
000000000000
ENDCHAR
STARTCHAR U+006b
ENCODING 107
SWIDTH 1000 0
BBX 40 30 0 -6
DWIDTH 40 0
BITMAP
000000000000
000000000000
000000000000
FC0000000000
FC0000000000
FC0000000000
FC0000000000
FC0000000000
FC0000000000
FC00FC000000
FC00FC000000
FC00FC000000
FC0FC0000000
FC0FC0000000
FC0FC0000000
FFFC00000000
FFFC00000000
FFFC00000000
FC00FC000000
FC00FC000000
FC00FC000000
FC0000FC0000
FC0000FC0000
FC0000FC0000
000000000000
000000000000
000000000000
000000000000
000000000000
000000000000
ENDCHAR
STARTCHAR U+006a
ENCODING 106
SWIDTH 1000 0
BBX 40 30 0 -6
DWIDTH 40 0
BITMAP
000000000000
000000000000
000000000000
00000FC00000
00000FC00000
00000FC00000
000000000000
000000000000
000000000000
00000FC00000
00000FC00000
00000FC00000
00000FC00000
00000FC00000
00000FC00000
00000FC00000
00000FC00000
00000FC00000
00000FC00000
00000FC00000
00000FC00000
FC000FC00000
FC000FC00000
FC000FC00000
FC000FC00000
FC000FC00000
FC000FC00000
0FFFFC000000
0FFFFC000000
0FFFFC000000
ENDCHAR
STARTCHAR U+0069
ENCODING 105
SWIDTH 1000 0
BBX 40 30 0 -6
DWIDTH 40 0
BITMAP
000000000000
000000000000
000000000000
000FC0000000
000FC0000000
000FC0000000
000000000000
000000000000
000000000000
00FFC0000000
00FFC0000000
00FFC0000000
000FC0000000
000FC0000000
000FC0000000
000FC0000000
000FC0000000
000FC0000000
000FC0000000
000FC0000000
000FC0000000
0FFFFFC00000
0FFFFFC00000
0FFFFFC00000
000000000000
000000000000
000000000000
000000000000
000000000000
000000000000
ENDCHAR
STARTCHAR U+0068
ENCODING 104
SWIDTH 1000 0
BBX 40 30 0 -6
DWIDTH 40 0
BITMAP
000000000000
000000000000
000000000000
FC0000000000
FC0000000000
FC0000000000
FC0000000000
FC0000000000
FC0000000000
FCFFFFC00000
FCFFFFC00000
FCFFFFC00000
FFC000FC0000
FFC000FC0000
FFC000FC0000
FC0000FC0000
FC0000FC0000
FC0000FC0000
FC0000FC0000
FC0000FC0000
FC0000FC0000
FC0000FC0000
FC0000FC0000
FC0000FC0000
000000000000
000000000000
000000000000
000000000000
000000000000
000000000000
ENDCHAR
STARTCHAR U+0067
ENCODING 103
SWIDTH 1000 0
BBX 40 30 0 -6
DWIDTH 40 0
BITMAP
000000000000
000000000000
000000000000
000000000000
000000000000
000000000000
000000000000
000000000000
000000000000
0FFFFCFC0000
0FFFFCFC0000
0FFFFCFC0000
FC000FC00000
FC000FC00000
FC000FC00000
0FFFFC000000
0FFFFC000000
0FFFFC000000
FC0000000000
FC0000000000
FC0000000000
0FFFFFC00000
0FFFFFC00000
0FFFFFC00000
FC0000FC0000
FC0000FC0000
FC0000FC0000
0FFFFFC00000
0FFFFFC00000
0FFFFFC00000
ENDCHAR
STARTCHAR U+0066
ENCODING 102
SWIDTH 1000 0
BBX 40 30 0 -6
DWIDTH 40 0
BITMAP
000000000000
000000000000
000000000000
000FFFC00000
000FFFC00000
000FFFC00000
00FC00FC0000
00FC00FC0000
00FC00FC0000
00FC00000000
00FC00000000
00FC00000000
FFFFFC000000
FFFFFC000000
FFFFFC000000
00FC00000000
00FC00000000
00FC00000000
00FC00000000
00FC00000000
00FC00000000
00FC00000000
00FC00000000
00FC00000000
000000000000
000000000000
000000000000
000000000000
000000000000
000000000000
ENDCHAR
STARTCHAR U+0065
ENCODING 101
SWIDTH 1000 0
BBX 40 30 0 -6
DWIDTH 40 0
BITMAP
000000000000
000000000000
000000000000
000000000000
000000000000
000000000000
000000000000
000000000000
000000000000
0FFFFFC00000
0FFFFFC00000
0FFFFFC00000
FC0000FC0000
FC0000FC0000
FC0000FC0000
FFFFFFFC0000
FFFFFFFC0000
FFFFFFFC0000
FC0000000000
FC0000000000
FC0000000000
0FFFFFC00000
0FFFFFC00000
0FFFFFC00000
000000000000
000000000000
000000000000
000000000000
000000000000
000000000000
ENDCHAR
STARTCHAR U+0064
ENCODING 100
SWIDTH 1000 0
BBX 40 30 0 -6
DWIDTH 40 0
BITMAP
000000000000
000000000000
000000000000
000000FC0000
000000FC0000
000000FC0000
000000FC0000
000000FC0000
000000FC0000
0FFFFCFC0000
0FFFFCFC0000
0FFFFCFC0000
FC000FFC0000
FC000FFC0000
FC000FFC0000
FC0000FC0000
FC0000FC0000
FC0000FC0000
FC000FFC0000
FC000FFC0000
FC000FFC0000
0FFFFCFC0000
0FFFFCFC0000
0FFFFCFC0000
000000000000
000000000000
000000000000
000000000000
000000000000
000000000000
ENDCHAR
STARTCHAR U+0063
ENCODING 99
SWIDTH 1000 0
BBX 40 30 0 -6
DWIDTH 40 0
BITMAP
000000000000
000000000000
000000000000
000000000000
000000000000
000000000000
000000000000
000000000000
000000000000
0FFFFFC00000
0FFFFFC00000
0FFFFFC00000
FC0000FC0000
FC0000FC0000
FC0000FC0000
FC0000000000
FC0000000000
FC0000000000
FC0000000000
FC0000000000
FC0000000000
0FFFFFFC0000
0FFFFFFC0000
0FFFFFFC0000
000000000000
000000000000
000000000000
000000000000
000000000000
000000000000
ENDCHAR
STARTCHAR U+0062
ENCODING 98
SWIDTH 1000 0
BBX 40 30 0 -6
DWIDTH 40 0
BITMAP
000000000000
000000000000
000000000000
FC0000000000
FC0000000000
FC0000000000
FC0000000000
FC0000000000
FC0000000000
FCFFFFC00000
FCFFFFC00000
FCFFFFC00000
FFC000FC0000
FFC000FC0000
FFC000FC0000
FC0000FC0000
FC0000FC0000
FC0000FC0000
FFC000FC0000
FFC000FC0000
FFC000FC0000
FCFFFFC00000
FCFFFFC00000
FCFFFFC00000
000000000000
000000000000
000000000000
000000000000
000000000000
000000000000
ENDCHAR
STARTCHAR U+0061
ENCODING 97
SWIDTH 1000 0
BBX 40 30 0 -6
DWIDTH 40 0
BITMAP
000000000000
000000000000
000000000000
000000000000
000000000000
000000000000
000000000000
000000000000
000000000000
0FFFFFC00000
0FFFFFC00000
0FFFFFC00000
000000FC0000
000000FC0000
000000FC0000
0FFFFFFC0000
0FFFFFFC0000
0FFFFFFC0000
FC000FFC0000
FC000FFC0000
FC000FFC0000
0FFFFCFC0000
0FFFFCFC0000
0FFFFCFC0000
000000000000
000000000000
000000000000
000000000000
000000000000
000000000000
ENDCHAR
STARTCHAR U+0060
ENCODING 96
SWIDTH 1000 0
BBX 40 30 0 -6
DWIDTH 40 0
BITMAP
000000000000
000000000000
000000000000
00FFC0000000
00FFC0000000
00FFC0000000
000FC0000000
000FC0000000
000FC0000000
0000FC000000
0000FC000000
0000FC000000
000000000000
000000000000
000000000000
000000000000
000000000000
000000000000
000000000000
000000000000
000000000000
000000000000
000000000000
000000000000
000000000000
000000000000
000000000000
000000000000
000000000000
000000000000
ENDCHAR
STARTCHAR U+005F
ENCODING 95
SWIDTH 1000 0
BBX 40 30 0 -6
DWIDTH 40 0
BITMAP
000000000000
000000000000
000000000000
000000000000
000000000000
000000000000
000000000000
000000000000
000000000000
000000000000
000000000000
000000000000
000000000000
000000000000
000000000000
000000000000
000000000000
000000000000
000000000000
000000000000
000000000000
FFFFFFFC0000
FFFFFFFC0000
FFFFFFFC0000
000000000000
000000000000
000000000000
000000000000
000000000000
000000000000
ENDCHAR
STARTCHAR U+005E
ENCODING 94
SWIDTH 1000 0
BBX 40 30 0 -6
DWIDTH 40 0
BITMAP
000000000000
000000000000
000000000000
000FC0000000
000FC0000000
000FC0000000
00FCFC000000
00FCFC000000
00FCFC000000
0FC00FC00000
0FC00FC00000
0FC00FC00000
FC0000FC0000
FC0000FC0000
FC0000FC0000
000000000000
000000000000
000000000000
000000000000
000000000000
000000000000
000000000000
000000000000
000000000000
000000000000
000000000000
000000000000
000000000000
000000000000
000000000000
ENDCHAR
STARTCHAR U+005D
ENCODING 93
SWIDTH 1000 0
BBX 40 30 0 -6
DWIDTH 40 0
BITMAP
000000000000
000000000000
000000000000
0FFFFC000000
0FFFFC000000
0FFFFC000000
0000FC000000
0000FC000000
0000FC000000
0000FC000000
0000FC000000
0000FC000000
0000FC000000
0000FC000000
0000FC000000
0000FC000000
0000FC000000
0000FC000000
0000FC000000
0000FC000000
0000FC000000
0FFFFC000000
0FFFFC000000
0FFFFC000000
000000000000
000000000000
000000000000
000000000000
000000000000
000000000000
ENDCHAR
STARTCHAR U+005C
ENCODING 92
SWIDTH 1000 0
BBX 40 30 0 -6
DWIDTH 40 0
BITMAP
000000000000
000000000000
000000000000
FC0000000000
FC0000000000
FC0000000000
0FC000000000
0FC000000000
0FC000000000
00FC00000000
00FC00000000
00FC00000000
000FC0000000
000FC0000000
000FC0000000
0000FC000000
0000FC000000
0000FC000000
00000FC00000
00000FC00000
00000FC00000
000000FC0000
000000FC0000
000000FC0000
000000000000
000000000000
000000000000
000000000000
000000000000
000000000000
ENDCHAR
STARTCHAR U+005B
ENCODING 91
SWIDTH 1000 0
BBX 40 30 0 -6
DWIDTH 40 0
BITMAP
000000000000
000000000000
000000000000
00FFFFC00000
00FFFFC00000
00FFFFC00000
00FC00000000
00FC00000000
00FC00000000
00FC00000000
00FC00000000
00FC00000000
00FC00000000
00FC00000000
00FC00000000
00FC00000000
00FC00000000
00FC00000000
00FC00000000
00FC00000000
00FC00000000
00FFFFC00000
00FFFFC00000
00FFFFC00000
000000000000
000000000000
000000000000
000000000000
000000000000
000000000000
ENDCHAR
STARTCHAR U+005A
ENCODING 90
SWIDTH 1000 0
BBX 40 30 0 -6
DWIDTH 40 0
BITMAP
000000000000
000000000000
000000000000
FFFFFFFC0000
FFFFFFFC0000
FFFFFFFC0000
00000FC00000
00000FC00000
00000FC00000
0000FC000000
0000FC000000
0000FC000000
000FC0000000
000FC0000000
000FC0000000
00FC00000000
00FC00000000
00FC00000000
0FC000000000
0FC000000000
0FC000000000
FFFFFFFC0000
FFFFFFFC0000
FFFFFFFC0000
000000000000
000000000000
000000000000
000000000000
000000000000
000000000000
ENDCHAR
STARTCHAR U+0059
ENCODING 89
SWIDTH 1000 0
BBX 40 30 0 -6
DWIDTH 40 0
BITMAP
000000000000
000000000000
000000000000
FC0000FC0000
FC0000FC0000
FC0000FC0000
0FC00FC00000
0FC00FC00000
0FC00FC00000
00FCFC000000
00FCFC000000
00FCFC000000
000FC0000000
000FC0000000
000FC0000000
000FC0000000
000FC0000000
000FC0000000
000FC0000000
000FC0000000
000FC0000000
000FC0000000
000FC0000000
000FC0000000
000000000000
000000000000
000000000000
000000000000
000000000000
000000000000
ENDCHAR
STARTCHAR U+0058
ENCODING 88
SWIDTH 1000 0
BBX 40 30 0 -6
DWIDTH 40 0
BITMAP
000000000000
000000000000
000000000000
FC0000FC0000
FC0000FC0000
FC0000FC0000
0FC00FC00000
0FC00FC00000
0FC00FC00000
00FCFC000000
00FCFC000000
00FCFC000000
000FC0000000
000FC0000000
000FC0000000
00FCFC000000
00FCFC000000
00FCFC000000
0FC00FC00000
0FC00FC00000
0FC00FC00000
FC0000FC0000
FC0000FC0000
FC0000FC0000
000000000000
000000000000
000000000000
000000000000
000000000000
000000000000
ENDCHAR
STARTCHAR U+0057
ENCODING 87
SWIDTH 1000 0
BBX 40 30 0 -6
DWIDTH 40 0
BITMAP
000000000000
000000000000
000000000000
FC0000FC0000
FC0000FC0000
FC0000FC0000
FC0000FC0000
FC0000FC0000
FC0000FC0000
FC0000FC0000
FC0000FC0000
FC0000FC0000
FC0FC0FC0000
FC0FC0FC0000
FC0FC0FC0000
FC0FC0FC0000
FC0FC0FC0000
FC0FC0FC0000
FCFCFCFC0000
FCFCFCFC0000
FCFCFCFC0000
0FC00FC00000
0FC00FC00000
0FC00FC00000
000000000000
000000000000
000000000000
000000000000
000000000000
000000000000
ENDCHAR
STARTCHAR U+0056
ENCODING 86
SWIDTH 1000 0
BBX 40 30 0 -6
DWIDTH 40 0
BITMAP
000000000000
000000000000
000000000000
FC0000FC0000
FC0000FC0000
FC0000FC0000
FC0000FC0000
FC0000FC0000
FC0000FC0000
0FC00FC00000
0FC00FC00000
0FC00FC00000
0FC00FC00000
0FC00FC00000
0FC00FC00000
00FCFC000000
00FCFC000000
00FCFC000000
00FCFC000000
00FCFC000000
00FCFC000000
000FC0000000
000FC0000000
000FC0000000
000000000000
000000000000
000000000000
000000000000
000000000000
000000000000
ENDCHAR
STARTCHAR U+0055
ENCODING 85
SWIDTH 1000 0
BBX 40 30 0 -6
DWIDTH 40 0
BITMAP
000000000000
000000000000
000000000000
FC0000FC0000
FC0000FC0000
FC0000FC0000
FC0000FC0000
FC0000FC0000
FC0000FC0000
FC0000FC0000
FC0000FC0000
FC0000FC0000
FC0000FC0000
FC0000FC0000
FC0000FC0000
FC0000FC0000
FC0000FC0000
FC0000FC0000
FC0000FC0000
FC0000FC0000
FC0000FC0000
0FFFFFC00000
0FFFFFC00000
0FFFFFC00000
000000000000
000000000000
000000000000
000000000000
000000000000
000000000000
ENDCHAR
STARTCHAR U+0054
ENCODING 84
SWIDTH 1000 0
BBX 40 30 0 -6
DWIDTH 40 0
BITMAP
000000000000
000000000000
000000000000
FFFFFFFC0000
FFFFFFFC0000
FFFFFFFC0000
000FC0000000
000FC0000000
000FC0000000
000FC0000000
000FC0000000
000FC0000000
000FC0000000
000FC0000000
000FC0000000
000FC0000000
000FC0000000
000FC0000000
000FC0000000
000FC0000000
000FC0000000
000FC0000000
000FC0000000
000FC0000000
000000000000
000000000000
000000000000
000000000000
000000000000
000000000000
ENDCHAR
STARTCHAR U+0053
ENCODING 83
SWIDTH 1000 0
BBX 40 30 0 -6
DWIDTH 40 0
BITMAP
000000000000
000000000000
000000000000
0FFFFFC00000
0FFFFFC00000
0FFFFFC00000
FC0000FC0000
FC0000FC0000
FC0000FC0000
FC0000000000
FC0000000000
FC0000000000
0FFFFFC00000
0FFFFFC00000
0FFFFFC00000
000000FC0000
000000FC0000
000000FC0000
FC0000FC0000
FC0000FC0000
FC0000FC0000
0FFFFFC00000
0FFFFFC00000
0FFFFFC00000
000000000000
000000000000
000000000000
000000000000
000000000000
000000000000
ENDCHAR
STARTCHAR U+0052
ENCODING 82
SWIDTH 1000 0
BBX 40 30 0 -6
DWIDTH 40 0
BITMAP
000000000000
000000000000
000000000000
FFFFFFC00000
FFFFFFC00000
FFFFFFC00000
FC0000FC0000
FC0000FC0000
FC0000FC0000
FC0000FC0000
FC0000FC0000
FC0000FC0000
FFFFFFC00000
FFFFFFC00000
FFFFFFC00000
FC00FC000000
FC00FC000000
FC00FC000000
FC000FC00000
FC000FC00000
FC000FC00000
FC0000FC0000
FC0000FC0000
FC0000FC0000
000000000000
000000000000
000000000000
000000000000
000000000000
000000000000
ENDCHAR
STARTCHAR U+0051
ENCODING 81
SWIDTH 1000 0
BBX 40 30 0 -6
DWIDTH 40 0
BITMAP
000000000000
000000000000
000000000000
0FFFFFC00000
0FFFFFC00000
0FFFFFC00000
FC0000FC0000
FC0000FC0000
FC0000FC0000
FC0000FC0000
FC0000FC0000
FC0000FC0000
FC0000FC0000
FC0000FC0000
FC0000FC0000
FC00FCFC0000
FC00FCFC0000
FC00FCFC0000
FC000FC00000
FC000FC00000
FC000FC00000
0FFFFCFC0000
0FFFFCFC0000
0FFFFCFC0000
000000000000
000000000000
000000000000
000000000000
000000000000
000000000000
ENDCHAR
STARTCHAR U+0050
ENCODING 80
SWIDTH 1000 0
BBX 40 30 0 -6
DWIDTH 40 0
BITMAP
000000000000
000000000000
000000000000
FFFFFFC00000
FFFFFFC00000
FFFFFFC00000
FC0000FC0000
FC0000FC0000
FC0000FC0000
FC0000FC0000
FC0000FC0000
FC0000FC0000
FFFFFFC00000
FFFFFFC00000
FFFFFFC00000
FC0000000000
FC0000000000
FC0000000000
FC0000000000
FC0000000000
FC0000000000
FC0000000000
FC0000000000
FC0000000000
000000000000
000000000000
000000000000
000000000000
000000000000
000000000000
ENDCHAR
STARTCHAR U+004F
ENCODING 79
SWIDTH 1000 0
BBX 40 30 0 -6
DWIDTH 40 0
BITMAP
000000000000
000000000000
000000000000
0FFFFFC00000
0FFFFFC00000
0FFFFFC00000
FC0000FC0000
FC0000FC0000
FC0000FC0000
FC0000FC0000
FC0000FC0000
FC0000FC0000
FC0000FC0000
FC0000FC0000
FC0000FC0000
FC0000FC0000
FC0000FC0000
FC0000FC0000
FC0000FC0000
FC0000FC0000
FC0000FC0000
0FFFFFC00000
0FFFFFC00000
0FFFFFC00000
000000000000
000000000000
000000000000
000000000000
000000000000
000000000000
ENDCHAR
STARTCHAR U+004E
ENCODING 78
SWIDTH 1000 0
BBX 40 30 0 -6
DWIDTH 40 0
BITMAP
000000000000
000000000000
000000000000
FC0000FC0000
FC0000FC0000
FC0000FC0000
FFC000FC0000
FFC000FC0000
FFC000FC0000
FCFC00FC0000
FCFC00FC0000
FCFC00FC0000
FC0FC0FC0000
FC0FC0FC0000
FC0FC0FC0000
FC00FCFC0000
FC00FCFC0000
FC00FCFC0000
FC000FFC0000
FC000FFC0000
FC000FFC0000
FC0000FC0000
FC0000FC0000
FC0000FC0000
000000000000
000000000000
000000000000
000000000000
000000000000
000000000000
ENDCHAR
STARTCHAR U+004D
ENCODING 77
SWIDTH 1000 0
BBX 40 30 0 -6
DWIDTH 40 0
BITMAP
000000000000
000000000000
000000000000
FC0000FC0000
FC0000FC0000
FC0000FC0000
FFC00FFC0000
FFC00FFC0000
FFC00FFC0000
FCFCFCFC0000
FCFCFCFC0000
FCFCFCFC0000
FC0FC0FC0000
FC0FC0FC0000
FC0FC0FC0000
FC0000FC0000
FC0000FC0000
FC0000FC0000
FC0000FC0000
FC0000FC0000
FC0000FC0000
FC0000FC0000
FC0000FC0000
FC0000FC0000
000000000000
000000000000
000000000000
000000000000
000000000000
000000000000
ENDCHAR
STARTCHAR U+004C
ENCODING 76
SWIDTH 1000 0
BBX 40 30 0 -6
DWIDTH 40 0
BITMAP
000000000000
000000000000
000000000000
FC0000000000
FC0000000000
FC0000000000
FC0000000000
FC0000000000
FC0000000000
FC0000000000
FC0000000000
FC0000000000
FC0000000000
FC0000000000
FC0000000000
FC0000000000
FC0000000000
FC0000000000
FC0000000000
FC0000000000
FC0000000000
FFFFFFFC0000
FFFFFFFC0000
FFFFFFFC0000
000000000000
000000000000
000000000000
000000000000
000000000000
000000000000
ENDCHAR
STARTCHAR U+004B
ENCODING 75
SWIDTH 1000 0
BBX 40 30 0 -6
DWIDTH 40 0
BITMAP
000000000000
000000000000
000000000000
FC0000FC0000
FC0000FC0000
FC0000FC0000
FC00FFC00000
FC00FFC00000
FC00FFC00000
FCFFC0000000
FCFFC0000000
FCFFC0000000
FFC000000000
FFC000000000
FFC000000000
FCFFC0000000
FCFFC0000000
FCFFC0000000
FC00FFC00000
FC00FFC00000
FC00FFC00000
FC0000FC0000
FC0000FC0000
FC0000FC0000
000000000000
000000000000
000000000000
000000000000
000000000000
000000000000
ENDCHAR
STARTCHAR U+004A
ENCODING 74
SWIDTH 1000 0
BBX 40 30 0 -6
DWIDTH 40 0
BITMAP
000000000000
000000000000
000000000000
0000FFFC0000
0000FFFC0000
0000FFFC0000
00000FC00000
00000FC00000
00000FC00000
00000FC00000
00000FC00000
00000FC00000
00000FC00000
00000FC00000
00000FC00000
00000FC00000
00000FC00000
00000FC00000
FC000FC00000
FC000FC00000
FC000FC00000
0FFFFC000000
0FFFFC000000
0FFFFC000000
000000000000
000000000000
000000000000
000000000000
000000000000
000000000000
ENDCHAR
STARTCHAR U+0049
ENCODING 73
SWIDTH 1000 0
BBX 40 30 0 -6
DWIDTH 40 0
BITMAP
000000000000
000000000000
000000000000
0FFFFFC00000
0FFFFFC00000
0FFFFFC00000
000FC0000000
000FC0000000
000FC0000000
000FC0000000
000FC0000000
000FC0000000
000FC0000000
000FC0000000
000FC0000000
000FC0000000
000FC0000000
000FC0000000
000FC0000000
000FC0000000
000FC0000000
0FFFFFC00000
0FFFFFC00000
0FFFFFC00000
000000000000
000000000000
000000000000
000000000000
000000000000
000000000000
ENDCHAR
STARTCHAR U+0048
ENCODING 72
SWIDTH 1000 0
BBX 40 30 0 -6
DWIDTH 40 0
BITMAP
000000000000
000000000000
000000000000
FC0000FC0000
FC0000FC0000
FC0000FC0000
FC0000FC0000
FC0000FC0000
FC0000FC0000
FC0000FC0000
FC0000FC0000
FC0000FC0000
FFFFFFFC0000
FFFFFFFC0000
FFFFFFFC0000
FC0000FC0000
FC0000FC0000
FC0000FC0000
FC0000FC0000
FC0000FC0000
FC0000FC0000
FC0000FC0000
FC0000FC0000
FC0000FC0000
000000000000
000000000000
000000000000
000000000000
000000000000
000000000000
ENDCHAR
STARTCHAR U+0047
ENCODING 71
SWIDTH 1000 0
BBX 40 30 0 -6
DWIDTH 40 0
BITMAP
000000000000
000000000000
000000000000
00FFFFC00000
00FFFFC00000
00FFFFC00000
0FC000FC0000
0FC000FC0000
0FC000FC0000
FC0000000000
FC0000000000
FC0000000000
FC0000000000
FC0000000000
FC0000000000
FC00FFFC0000
FC00FFFC0000
FC00FFFC0000
0FC000FC0000
0FC000FC0000
0FC000FC0000
00FFFFC00000
00FFFFC00000
00FFFFC00000
000000000000
000000000000
000000000000
000000000000
000000000000
000000000000
ENDCHAR
STARTCHAR U+0046
ENCODING 70
SWIDTH 1000 0
BBX 40 30 0 -6
DWIDTH 40 0
BITMAP
000000000000
000000000000
000000000000
FFFFFFFC0000
FFFFFFFC0000
FFFFFFFC0000
FC0000000000
FC0000000000
FC0000000000
FC0000000000
FC0000000000
FC0000000000
FFFFFC000000
FFFFFC000000
FFFFFC000000
FC0000000000
FC0000000000
FC0000000000
FC0000000000
FC0000000000
FC0000000000
FC0000000000
FC0000000000
FC0000000000
000000000000
000000000000
000000000000
000000000000
000000000000
000000000000
ENDCHAR
STARTCHAR U+0045
ENCODING 69
SWIDTH 1000 0
BBX 40 30 0 -6
DWIDTH 40 0
BITMAP
000000000000
000000000000
000000000000
FFFFFFFC0000
FFFFFFFC0000
FFFFFFFC0000
FC0000000000
FC0000000000
FC0000000000
FC0000000000
FC0000000000
FC0000000000
FFFFFC000000
FFFFFC000000
FFFFFC000000
FC0000000000
FC0000000000
FC0000000000
FC0000000000
FC0000000000
FC0000000000
FFFFFFFC0000
FFFFFFFC0000
FFFFFFFC0000
000000000000
000000000000
000000000000
000000000000
000000000000
000000000000
ENDCHAR
STARTCHAR U+0044
ENCODING 68
SWIDTH 1000 0
BBX 40 30 0 -6
DWIDTH 40 0
BITMAP
000000000000
000000000000
000000000000
FFFFFC000000
FFFFFC000000
FFFFFC000000
0FC00FC00000
0FC00FC00000
0FC00FC00000
0FC000FC0000
0FC000FC0000
0FC000FC0000
0FC000FC0000
0FC000FC0000
0FC000FC0000
0FC000FC0000
0FC000FC0000
0FC000FC0000
0FC00FC00000
0FC00FC00000
0FC00FC00000
FFFFFC000000
FFFFFC000000
FFFFFC000000
000000000000
000000000000
000000000000
000000000000
000000000000
000000000000
ENDCHAR
STARTCHAR U+0043
ENCODING 67
SWIDTH 1000 0
BBX 40 30 0 -6
DWIDTH 40 0
BITMAP
000000000000
000000000000
000000000000
00FFFFC00000
00FFFFC00000
00FFFFC00000
0FC000FC0000
0FC000FC0000
0FC000FC0000
FC0000000000
FC0000000000
FC0000000000
FC0000000000
FC0000000000
FC0000000000
FC0000000000
FC0000000000
FC0000000000
0FC000FC0000
0FC000FC0000
0FC000FC0000
00FFFFC00000
00FFFFC00000
00FFFFC00000
000000000000
000000000000
000000000000
000000000000
000000000000
000000000000
ENDCHAR
STARTCHAR U+0042
ENCODING 66
SWIDTH 1000 0
BBX 40 30 0 -6
DWIDTH 40 0
BITMAP
000000000000
000000000000
000000000000
FFFFFFC00000
FFFFFFC00000
FFFFFFC00000
0FC000FC0000
0FC000FC0000
0FC000FC0000
0FC000FC0000
0FC000FC0000
0FC000FC0000
0FFFFFC00000
0FFFFFC00000
0FFFFFC00000
0FC000FC0000
0FC000FC0000
0FC000FC0000
0FC000FC0000
0FC000FC0000
0FC000FC0000
FFFFFFC00000
FFFFFFC00000
FFFFFFC00000
000000000000
000000000000
000000000000
000000000000
000000000000
000000000000
ENDCHAR
STARTCHAR U+0041
ENCODING 65
SWIDTH 1000 0
BBX 40 30 0 -6
DWIDTH 40 0
BITMAP
000000000000
000000000000
000000000000
000FC0000000
000FC0000000
000FC0000000
00FCFC000000
00FCFC000000
00FCFC000000
0FC00FC00000
0FC00FC00000
0FC00FC00000
FC0000FC0000
FC0000FC0000
FC0000FC0000
FFFFFFFC0000
FFFFFFFC0000
FFFFFFFC0000
FC0000FC0000
FC0000FC0000
FC0000FC0000
FC0000FC0000
FC0000FC0000
FC0000FC0000
000000000000
000000000000
000000000000
000000000000
000000000000
000000000000
ENDCHAR
STARTCHAR U+0040
ENCODING 64
SWIDTH 1000 0
BBX 40 30 0 -6
DWIDTH 40 0
BITMAP
000000000000
000000000000
000000000000
0FFFFFC00000
0FFFFFC00000
0FFFFFC00000
FC0000FC0000
FC0000FC0000
FC0000FC0000
FC0FFFFC0000
FC0FFFFC0000
FC0FFFFC0000
FCFC0FFC0000
FCFC0FFC0000
FCFC0FFC0000
FC0FFCFC0000
FC0FFCFC0000
FC0FFCFC0000
FC0000000000
FC0000000000
FC0000000000
0FFFFFC00000
0FFFFFC00000
0FFFFFC00000
000000000000
000000000000
000000000000
000000000000
000000000000
000000000000
ENDCHAR
STARTCHAR U+003F
ENCODING 63
SWIDTH 1000 0
BBX 40 30 0 -6
DWIDTH 40 0
BITMAP
000000000000
000000000000
000000000000
0FFFFFC00000
0FFFFFC00000
0FFFFFC00000
FC0000FC0000
FC0000FC0000
FC0000FC0000
0000FFC00000
0000FFC00000
0000FFC00000
000FC0000000
000FC0000000
000FC0000000
000FC0000000
000FC0000000
000FC0000000
000000000000
000000000000
000000000000
000FC0000000
000FC0000000
000FC0000000
000000000000
000000000000
000000000000
000000000000
000000000000
000000000000
ENDCHAR
STARTCHAR U+003E
ENCODING 62
SWIDTH 1000 0
BBX 40 30 0 -6
DWIDTH 40 0
BITMAP
000000000000
000000000000
000000000000
FC0000000000
FC0000000000
FC0000000000
00FC00000000
00FC00000000
00FC00000000
0000FC000000
0000FC000000
0000FC000000
000000FC0000
000000FC0000
000000FC0000
0000FC000000
0000FC000000
0000FC000000
00FC00000000
00FC00000000
00FC00000000
FC0000000000
FC0000000000
FC0000000000
000000000000
000000000000
000000000000
000000000000
000000000000
000000000000
ENDCHAR
STARTCHAR U+003D
ENCODING 61
SWIDTH 1000 0
BBX 40 30 0 -6
DWIDTH 40 0
BITMAP
000000000000
000000000000
000000000000
000000000000
000000000000
000000000000
000000000000
000000000000
000000000000
FFFFFFFC0000
FFFFFFFC0000
FFFFFFFC0000
000000000000
000000000000
000000000000
FFFFFFFC0000
FFFFFFFC0000
FFFFFFFC0000
000000000000
000000000000
000000000000
000000000000
000000000000
000000000000
000000000000
000000000000
000000000000
000000000000
000000000000
000000000000
ENDCHAR
STARTCHAR U+003C
ENCODING 60
SWIDTH 1000 0
BBX 40 30 0 -6
DWIDTH 40 0
BITMAP
000000000000
000000000000
000000000000
000000FC0000
000000FC0000
000000FC0000
0000FC000000
0000FC000000
0000FC000000
00FC00000000
00FC00000000
00FC00000000
FC0000000000
FC0000000000
FC0000000000
00FC00000000
00FC00000000
00FC00000000
0000FC000000
0000FC000000
0000FC000000
000000FC0000
000000FC0000
000000FC0000
000000000000
000000000000
000000000000
000000000000
000000000000
000000000000
ENDCHAR
STARTCHAR U+003B
ENCODING 59
SWIDTH 1000 0
BBX 40 30 0 -6
DWIDTH 40 0
BITMAP
000000000000
000000000000
000000000000
000000000000
000000000000
000000000000
00FFC0000000
00FFC0000000
00FFC0000000
00FFC0000000
00FFC0000000
00FFC0000000
000000000000
000000000000
000000000000
000000000000
000000000000
000000000000
00FFC0000000
00FFC0000000
00FFC0000000
00FC00000000
00FC00000000
00FC00000000
0FC000000000
0FC000000000
0FC000000000
000000000000
000000000000
000000000000
ENDCHAR
STARTCHAR U+003A
ENCODING 58
SWIDTH 1000 0
BBX 40 30 0 -6
DWIDTH 40 0
BITMAP
000000000000
000000000000
000000000000
000000000000
000000000000
000000000000
00FFC0000000
00FFC0000000
00FFC0000000
00FFC0000000
00FFC0000000
00FFC0000000
000000000000
000000000000
000000000000
000000000000
000000000000
000000000000
00FFC0000000
00FFC0000000
00FFC0000000
00FFC0000000
00FFC0000000
00FFC0000000
000000000000
000000000000
000000000000
000000000000
000000000000
000000000000
ENDCHAR
STARTCHAR U+0039
ENCODING 57
SWIDTH 1000 0
BBX 40 30 0 -6
DWIDTH 40 0
BITMAP
000000000000
000000000000
000000000000
0FFFFFC00000
0FFFFFC00000
0FFFFFC00000
FC0000FC0000
FC0000FC0000
FC0000FC0000
FC000FFC0000
FC000FFC0000
FC000FFC0000
0FFFFCFC0000
0FFFFCFC0000
0FFFFCFC0000
000000FC0000
000000FC0000
000000FC0000
00000FC00000
00000FC00000
00000FC00000
0FFFFC000000
0FFFFC000000
0FFFFC000000
000000000000
000000000000
000000000000
000000000000
000000000000
000000000000
ENDCHAR
STARTCHAR U+0038
ENCODING 56
SWIDTH 1000 0
BBX 40 30 0 -6
DWIDTH 40 0
BITMAP
000000000000
000000000000
000000000000
0FFFFFC00000
0FFFFFC00000
0FFFFFC00000
FC0000FC0000
FC0000FC0000
FC0000FC0000
FC0000FC0000
FC0000FC0000
FC0000FC0000
0FFFFFC00000
0FFFFFC00000
0FFFFFC00000
FC0000FC0000
FC0000FC0000
FC0000FC0000
FC0000FC0000
FC0000FC0000
FC0000FC0000
0FFFFFC00000
0FFFFFC00000
0FFFFFC00000
000000000000
000000000000
000000000000
000000000000
000000000000
000000000000
ENDCHAR
STARTCHAR U+0037
ENCODING 55
SWIDTH 1000 0
BBX 40 30 0 -6
DWIDTH 40 0
BITMAP
000000000000
000000000000
000000000000
FFFFFFFC0000
FFFFFFFC0000
FFFFFFFC0000
000000FC0000
000000FC0000
000000FC0000
00000FC00000
00000FC00000
00000FC00000
0000FC000000
0000FC000000
0000FC000000
000FC0000000
000FC0000000
000FC0000000
00FC00000000
00FC00000000
00FC00000000
00FC00000000
00FC00000000
00FC00000000
000000000000
000000000000
000000000000
000000000000
000000000000
000000000000
ENDCHAR
STARTCHAR U+0036
ENCODING 54
SWIDTH 1000 0
BBX 40 30 0 -6
DWIDTH 40 0
BITMAP
000000000000
000000000000
000000000000
00FFFFC00000
00FFFFC00000
00FFFFC00000
0FC000000000
0FC000000000
0FC000000000
FC0000000000
FC0000000000
FC0000000000
FCFFFFC00000
FCFFFFC00000
FCFFFFC00000
FFC000FC0000
FFC000FC0000
FFC000FC0000
FC0000FC0000
FC0000FC0000
FC0000FC0000
0FFFFFC00000
0FFFFFC00000
0FFFFFC00000
000000000000
000000000000
000000000000
000000000000
000000000000
000000000000
ENDCHAR
STARTCHAR U+0035
ENCODING 53
SWIDTH 1000 0
BBX 40 30 0 -6
DWIDTH 40 0
BITMAP
000000000000
000000000000
000000000000
FFFFFFFC0000
FFFFFFFC0000
FFFFFFFC0000
FC0000000000
FC0000000000
FC0000000000
FCFFFFC00000
FCFFFFC00000
FCFFFFC00000
FFC000FC0000
FFC000FC0000
FFC000FC0000
000000FC0000
000000FC0000
000000FC0000
FC0000FC0000
FC0000FC0000
FC0000FC0000
0FFFFFC00000
0FFFFFC00000
0FFFFFC00000
000000000000
000000000000
000000000000
000000000000
000000000000
000000000000
ENDCHAR
STARTCHAR U+0034
ENCODING 52
SWIDTH 1000 0
BBX 40 30 0 -6
DWIDTH 40 0
BITMAP
000000000000
000000000000
000000000000
0000FC000000
0000FC000000
0000FC000000
000FFC000000
000FFC000000
000FFC000000
00FCFC000000
00FCFC000000
00FCFC000000
0FC0FC000000
0FC0FC000000
0FC0FC000000
FFFFFFFC0000
FFFFFFFC0000
FFFFFFFC0000
0000FC000000
0000FC000000
0000FC000000
0000FC000000
0000FC000000
0000FC000000
000000000000
000000000000
000000000000
000000000000
000000000000
000000000000
ENDCHAR
STARTCHAR U+0033
ENCODING 51
SWIDTH 1000 0
BBX 40 30 0 -6
DWIDTH 40 0
BITMAP
000000000000
000000000000
000000000000
FFFFFFFC0000
FFFFFFFC0000
FFFFFFFC0000
00000FC00000
00000FC00000
00000FC00000
0000FC000000
0000FC000000
0000FC000000
000FFFC00000
000FFFC00000
000FFFC00000
000000FC0000
000000FC0000
000000FC0000
FC0000FC0000
FC0000FC0000
FC0000FC0000
0FFFFFC00000
0FFFFFC00000
0FFFFFC00000
000000000000
000000000000
000000000000
000000000000
000000000000
000000000000
ENDCHAR
STARTCHAR U+0032
ENCODING 50
SWIDTH 1000 0
BBX 40 30 0 -6
DWIDTH 40 0
BITMAP
000000000000
000000000000
000000000000
0FFFFFC00000
0FFFFFC00000
0FFFFFC00000
FC0000FC0000
FC0000FC0000
FC0000FC0000
000000FC0000
000000FC0000
000000FC0000
000FFFC00000
000FFFC00000
000FFFC00000
0FFC00000000
0FFC00000000
0FFC00000000
FC0000000000
FC0000000000
FC0000000000
FFFFFFFC0000
FFFFFFFC0000
FFFFFFFC0000
000000000000
000000000000
000000000000
000000000000
000000000000
000000000000
ENDCHAR
STARTCHAR U+0031
ENCODING 49
SWIDTH 1000 0
BBX 40 30 0 -6
DWIDTH 40 0
BITMAP
000000000000
000000000000
000000000000
000FC0000000
000FC0000000
000FC0000000
00FFC0000000
00FFC0000000
00FFC0000000
0FCFC0000000
0FCFC0000000
0FCFC0000000
000FC0000000
000FC0000000
000FC0000000
000FC0000000
000FC0000000
000FC0000000
000FC0000000
000FC0000000
000FC0000000
0FFFFFC00000
0FFFFFC00000
0FFFFFC00000
000000000000
000000000000
000000000000
000000000000
000000000000
000000000000
ENDCHAR
STARTCHAR U+0030
ENCODING 48
SWIDTH 1000 0
BBX 40 30 0 -6
DWIDTH 40 0
BITMAP
000000000000
000000000000
000000000000
00FFFC000000
00FFFC000000
00FFFC000000
0FC00FC00000
0FC00FC00000
0FC00FC00000
FC0000FC0000
FC0000FC0000
FC0000FC0000
FC0000FC0000
FC0000FC0000
FC0000FC0000
FC0000FC0000
FC0000FC0000
FC0000FC0000
0FC00FC00000
0FC00FC00000
0FC00FC00000
00FFFC000000
00FFFC000000
00FFFC000000
000000000000
000000000000
000000000000
000000000000
000000000000
000000000000
ENDCHAR
STARTCHAR U+002F
ENCODING 47
SWIDTH 1000 0
BBX 40 30 0 -6
DWIDTH 40 0
BITMAP
000000000000
000000000000
000000000000
000000FC0000
000000FC0000
000000FC0000
00000FC00000
00000FC00000
00000FC00000
0000FC000000
0000FC000000
0000FC000000
000FC0000000
000FC0000000
000FC0000000
00FC00000000
00FC00000000
00FC00000000
0FC000000000
0FC000000000
0FC000000000
FC0000000000
FC0000000000
FC0000000000
000000000000
000000000000
000000000000
000000000000
000000000000
000000000000
ENDCHAR
STARTCHAR U+002E
ENCODING 46
SWIDTH 1000 0
BBX 40 30 0 -6
DWIDTH 40 0
BITMAP
000000000000
000000000000
000000000000
000000000000
000000000000
000000000000
000000000000
000000000000
000000000000
000000000000
000000000000
000000000000
000000000000
000000000000
000000000000
000000000000
000000000000
000000000000
00FFC0000000
00FFC0000000
00FFC0000000
00FFC0000000
00FFC0000000
00FFC0000000
000000000000
000000000000
000000000000
000000000000
000000000000
000000000000
ENDCHAR
STARTCHAR U+002D
ENCODING 45
SWIDTH 1000 0
BBX 40 30 0 -6
DWIDTH 40 0
BITMAP
000000000000
000000000000
000000000000
000000000000
000000000000
000000000000
000000000000
000000000000
000000000000
000000000000
000000000000
000000000000
FFFFFFFC0000
FFFFFFFC0000
FFFFFFFC0000
000000000000
000000000000
000000000000
000000000000
000000000000
000000000000
000000000000
000000000000
000000000000
000000000000
000000000000
000000000000
000000000000
000000000000
000000000000
ENDCHAR
STARTCHAR U+002C
ENCODING 44
SWIDTH 1000 0
BBX 40 30 0 -6
DWIDTH 40 0
BITMAP
000000000000
000000000000
000000000000
000000000000
000000000000
000000000000
000000000000
000000000000
000000000000
000000000000
000000000000
000000000000
000000000000
000000000000
000000000000
000000000000
000000000000
000000000000
00FFC0000000
00FFC0000000
00FFC0000000
00FC00000000
00FC00000000
00FC00000000
0FC000000000
0FC000000000
0FC000000000
000000000000
000000000000
000000000000
ENDCHAR
STARTCHAR U+002B
ENCODING 43
SWIDTH 1000 0
BBX 40 30 0 -6
DWIDTH 40 0
BITMAP
000000000000
000000000000
000000000000
000000000000
000000000000
000000000000
000FC0000000
000FC0000000
000FC0000000
000FC0000000
000FC0000000
000FC0000000
FFFFFFFC0000
FFFFFFFC0000
FFFFFFFC0000
000FC0000000
000FC0000000
000FC0000000
000FC0000000
000FC0000000
000FC0000000
000000000000
000000000000
000000000000
000000000000
000000000000
000000000000
000000000000
000000000000
000000000000
ENDCHAR
STARTCHAR U+002A
ENCODING 42
SWIDTH 1000 0
BBX 40 30 0 -6
DWIDTH 40 0
BITMAP
000000000000
000000000000
000000000000
000000000000
000000000000
000000000000
0FC00FC00000
0FC00FC00000
0FC00FC00000
00FCFC000000
00FCFC000000
00FCFC000000
FFFFFFFC0000
FFFFFFFC0000
FFFFFFFC0000
00FCFC000000
00FCFC000000
00FCFC000000
0FC00FC00000
0FC00FC00000
0FC00FC00000
000000000000
000000000000
000000000000
000000000000
000000000000
000000000000
000000000000
000000000000
000000000000
ENDCHAR
STARTCHAR U+0029
ENCODING 41
SWIDTH 1000 0
BBX 40 30 0 -6
DWIDTH 40 0
BITMAP
000000000000
000000000000
000000000000
00FC00000000
00FC00000000
00FC00000000
000FC0000000
000FC0000000
000FC0000000
0000FC000000
0000FC000000
0000FC000000
0000FC000000
0000FC000000
0000FC000000
0000FC000000
0000FC000000
0000FC000000
000FC0000000
000FC0000000
000FC0000000
00FC00000000
00FC00000000
00FC00000000
000000000000
000000000000
000000000000
000000000000
000000000000
000000000000
ENDCHAR
STARTCHAR U+0028
ENCODING 40
SWIDTH 1000 0
BBX 40 30 0 -6
DWIDTH 40 0
BITMAP
000000000000
000000000000
000000000000
0000FC000000
0000FC000000
0000FC000000
000FC0000000
000FC0000000
000FC0000000
00FC00000000
00FC00000000
00FC00000000
00FC00000000
00FC00000000
00FC00000000
00FC00000000
00FC00000000
00FC00000000
000FC0000000
000FC0000000
000FC0000000
0000FC000000
0000FC000000
0000FC000000
000000000000
000000000000
000000000000
000000000000
000000000000
000000000000
ENDCHAR
STARTCHAR U+0027
ENCODING 39
SWIDTH 1000 0
BBX 40 30 0 -6
DWIDTH 40 0
BITMAP
000000000000
000000000000
000000000000
000FFC000000
000FFC000000
000FFC000000
000FC0000000
000FC0000000
000FC0000000
00FC00000000
00FC00000000
00FC00000000
000000000000
000000000000
000000000000
000000000000
000000000000
000000000000
000000000000
000000000000
000000000000
000000000000
000000000000
000000000000
000000000000
000000000000
000000000000
000000000000
000000000000
000000000000
ENDCHAR
STARTCHAR U+0026
ENCODING 38
SWIDTH 1000 0
BBX 40 30 0 -6
DWIDTH 40 0
BITMAP
000000000000
000000000000
000000000000
0FFFC0000000
0FFFC0000000
0FFFC0000000
FC00FC000000
FC00FC000000
FC00FC000000
FC00FC000000
FC00FC000000
FC00FC000000
0FFFC0000000
0FFFC0000000
0FFFC0000000
FC00FCFC0000
FC00FCFC0000
FC00FCFC0000
FC000FC00000
FC000FC00000
FC000FC00000
0FFFFCFC0000
0FFFFCFC0000
0FFFFCFC0000
000000000000
000000000000
000000000000
000000000000
000000000000
000000000000
ENDCHAR
STARTCHAR U+0025
ENCODING 37
SWIDTH 1000 0
BBX 40 30 0 -6
DWIDTH 40 0
BITMAP
000000000000
000000000000
000000000000
0FC000FC0000
0FC000FC0000
0FC000FC0000
FCFC0FC00000
FCFC0FC00000
FCFC0FC00000
0FC0FC000000
0FC0FC000000
0FC0FC000000
000FC0000000
000FC0000000
000FC0000000
00FC0FC00000
00FC0FC00000
00FC0FC00000
0FC0FCFC0000
0FC0FCFC0000
0FC0FCFC0000
FC000FC00000
FC000FC00000
FC000FC00000
000000000000
000000000000
000000000000
000000000000
000000000000
000000000000
ENDCHAR
STARTCHAR U+0024
ENCODING 36
SWIDTH 1000 0
BBX 40 30 0 -6
DWIDTH 40 0
BITMAP
000000000000
000000000000
000000000000
000FC0000000
000FC0000000
000FC0000000
0FFFFFC00000
0FFFFFC00000
0FFFFFC00000
FC0FC0000000
FC0FC0000000
FC0FC0000000
0FFFFFC00000
0FFFFFC00000
0FFFFFC00000
000FC0FC0000
000FC0FC0000
000FC0FC0000
0FFFFFC00000
0FFFFFC00000
0FFFFFC00000
000FC0000000
000FC0000000
000FC0000000
000000000000
000000000000
000000000000
000000000000
000000000000
000000000000
ENDCHAR
STARTCHAR U+0023
ENCODING 35
SWIDTH 1000 0
BBX 40 30 0 -6
DWIDTH 40 0
BITMAP
000000000000
000000000000
000000000000
0FC0FC000000
0FC0FC000000
0FC0FC000000
0FC0FC000000
0FC0FC000000
0FC0FC000000
FFFFFFC00000
FFFFFFC00000
FFFFFFC00000
0FC0FC000000
0FC0FC000000
0FC0FC000000
FFFFFFC00000
FFFFFFC00000
FFFFFFC00000
0FC0FC000000
0FC0FC000000
0FC0FC000000
0FC0FC000000
0FC0FC000000
0FC0FC000000
000000000000
000000000000
000000000000
000000000000
000000000000
000000000000
ENDCHAR
STARTCHAR U+0022
ENCODING 34
SWIDTH 1000 0
BBX 40 30 0 -6
DWIDTH 40 0
BITMAP
000000000000
000000000000
000000000000
0FC0FC000000
0FC0FC000000
0FC0FC000000
0FC0FC000000
0FC0FC000000
0FC0FC000000
0FC0FC000000
0FC0FC000000
0FC0FC000000
000000000000
000000000000
000000000000
000000000000
000000000000
000000000000
000000000000
000000000000
000000000000
000000000000
000000000000
000000000000
000000000000
000000000000
000000000000
000000000000
000000000000
000000000000
ENDCHAR
STARTCHAR U+0021
ENCODING 33
SWIDTH 1000 0
BBX 40 30 0 -6
DWIDTH 40 0
BITMAP
000000000000
000000000000
000000000000
000FC0000000
000FC0000000
000FC0000000
000FC0000000
000FC0000000
000FC0000000
000FC0000000
000FC0000000
000FC0000000
000FC0000000
000FC0000000
000FC0000000
000FC0000000
000FC0000000
000FC0000000
000000000000
000000000000
000000000000
000FC0000000
000FC0000000
000FC0000000
000000000000
000000000000
000000000000
000000000000
000000000000
000000000000
ENDCHAR
STARTCHAR U+2E2E
ENCODING 11822
SWIDTH 1000 0
BBX 40 30 0 -6
DWIDTH 40 0
BITMAP
000000000000
000000000000
000000000000
0FFFFFC00000
0FFFFFC00000
0FFFFFC00000
FC0000FC0000
FC0000FC0000
FC0000FC0000
0FFC00000000
0FFC00000000
0FFC00000000
000FC0000000
000FC0000000
000FC0000000
000FC0000000
000FC0000000
000FC0000000
000000000000
000000000000
000000000000
000FC0000000
000FC0000000
000FC0000000
000000000000
000000000000
000000000000
000000000000
000000000000
000000000000
ENDCHAR
STARTCHAR U+00b7
ENCODING 183
SWIDTH 1000 0
BBX 40 30 0 -6
DWIDTH 40 0
BITMAP
000000000000
000000000000
000000000000
000000000000
000000000000
000000000000
000000000000
000000000000
000000000000
000000000000
000000000000
000000000000
000FC0000000
000FC0000000
000FC0000000
000000000000
000000000000
000000000000
000000000000
000000000000
000000000000
000000000000
000000000000
000000000000
000000000000
000000000000
000000000000
000000000000
000000000000
000000000000
ENDCHAR
STARTCHAR U+00A3
ENCODING 163
SWIDTH 1000 0
BBX 40 30 0 -6
DWIDTH 40 0
BITMAP
000000000000
000000000000
000000000000
000FFFC00000
000FFFC00000
000FFFC00000
00FC00FC0000
00FC00FC0000
00FC00FC0000
00FC00000000
00FC00000000
00FC00000000
FFFFFC000000
FFFFFC000000
FFFFFC000000
00FC00000000
00FC00000000
00FC00000000
0FFFFC000000
0FFFFC000000
0FFFFC000000
FCFC0FFC0000
FCFC0FFC0000
FCFC0FFC0000
0FC000000000
0FC000000000
0FC000000000
000000000000
000000000000
000000000000
ENDCHAR
STARTCHAR U+2260
ENCODING 8800
SWIDTH 1000 0
BBX 40 30 0 -6
DWIDTH 40 0
BITMAP
000000000000
000000000000
000000000000
000000FC0000
000000FC0000
000000FC0000
00000FC00000
00000FC00000
00000FC00000
FFFFFFFC0000
FFFFFFFC0000
FFFFFFFC0000
000FC0000000
000FC0000000
000FC0000000
FFFFFFFC0000
FFFFFFFC0000
FFFFFFFC0000
0FC000000000
0FC000000000
0FC000000000
FC0000000000
FC0000000000
FC0000000000
000000000000
000000000000
000000000000
000000000000
000000000000
000000000000
ENDCHAR
STARTCHAR U+03C0
ENCODING 960
SWIDTH 1000 0
BBX 40 30 0 -6
DWIDTH 40 0
BITMAP
000000000000
000000000000
000000000000
000000000000
000000000000
000000000000
000000000000
000000000000
000000000000
FFFFFFFC0000
FFFFFFFC0000
FFFFFFFC0000
00FC0FC00000
00FC0FC00000
00FC0FC00000
00FC0FC00000
00FC0FC00000
00FC0FC00000
00FC0FC00000
00FC0FC00000
00FC0FC00000
0FC00FC00000
0FC00FC00000
0FC00FC00000
000000000000
000000000000
000000000000
000000000000
000000000000
000000000000
ENDCHAR
STARTCHAR U+2265
ENCODING 8805
SWIDTH 1000 0
BBX 40 30 0 -6
DWIDTH 40 0
BITMAP
000000000000
000000000000
000000000000
FC0000000000
FC0000000000
FC0000000000
00FC00000000
00FC00000000
00FC00000000
0000FC000000
0000FC000000
0000FC000000
000000FC0000
000000FC0000
000000FC0000
0000FC000000
0000FC000000
0000FC000000
00FC00000000
00FC00000000
00FC00000000
FC0000000000
FC0000000000
FC0000000000
FFFFFFFC0000
FFFFFFFC0000
FFFFFFFC0000
000000000000
000000000000
000000000000
ENDCHAR
STARTCHAR U+2264
ENCODING 8804
SWIDTH 1000 0
BBX 40 30 0 -6
DWIDTH 40 0
BITMAP
000000000000
000000000000
000000000000
000000FC0000
000000FC0000
000000FC0000
0000FC000000
0000FC000000
0000FC000000
00FC00000000
00FC00000000
00FC00000000
FC0000000000
FC0000000000
FC0000000000
00FC00000000
00FC00000000
00FC00000000
0000FC000000
0000FC000000
0000FC000000
000000FC0000
000000FC0000
000000FC0000
FFFFFFFC0000
FFFFFFFC0000
FFFFFFFC0000
000000000000
000000000000
000000000000
ENDCHAR
STARTCHAR U+2502
ENCODING 9474
SWIDTH 1000 0
BBX 40 30 0 -6
DWIDTH 40 0
BITMAP
000FC0000000
000FC0000000
000FC0000000
000FC0000000
000FC0000000
000FC0000000
000FC0000000
000FC0000000
000FC0000000
000FC0000000
000FC0000000
000FC0000000
000FC0000000
000FC0000000
000FC0000000
000FC0000000
000FC0000000
000FC0000000
000FC0000000
000FC0000000
000FC0000000
000FC0000000
000FC0000000
000FC0000000
000FC0000000
000FC0000000
000FC0000000
000FC0000000
000FC0000000
000FC0000000
ENDCHAR
STARTCHAR U+253C
ENCODING 9532
SWIDTH 1000 0
BBX 40 30 0 -6
DWIDTH 40 0
BITMAP
000000000000
000000000000
000000000000
000000000000
000000000000
000000000000
000000000000
000000000000
000000000000
000000000000
000000000000
000000000000
FFFFFFFFFF00
FFFFFFFFFF00
FFFFFFFFFF00
000FC0000000
000FC0000000
000FC0000000
000FC0000000
000FC0000000
000FC0000000
000FC0000000
000FC0000000
000FC0000000
000FC0000000
000FC0000000
000FC0000000
000FC0000000
000FC0000000
000FC0000000
ENDCHAR
STARTCHAR U+2534
ENCODING 9524
SWIDTH 1000 0
BBX 40 30 0 -6
DWIDTH 40 0
BITMAP
000FC0000000
000FC0000000
000FC0000000
000FC0000000
000FC0000000
000FC0000000
000FC0000000
000FC0000000
000FC0000000
000FC0000000
000FC0000000
000FC0000000
FFFFFFFFFF00
FFFFFFFFFF00
FFFFFFFFFF00
000000000000
000000000000
000000000000
000000000000
000000000000
000000000000
000000000000
000000000000
000000000000
000000000000
000000000000
000000000000
000000000000
000000000000
000000000000
ENDCHAR
STARTCHAR U+2524
ENCODING 9508
SWIDTH 1000 0
BBX 40 30 0 -6
DWIDTH 40 0
BITMAP
000FC0000000
000FC0000000
000FC0000000
000FC0000000
000FC0000000
000FC0000000
000FC0000000
000FC0000000
000FC0000000
000FC0000000
000FC0000000
000FC0000000
FFFFC0000000
FFFFC0000000
FFFFC0000000
000FC0000000
000FC0000000
000FC0000000
000FC0000000
000FC0000000
000FC0000000
000FC0000000
000FC0000000
000FC0000000
000FC0000000
000FC0000000
000FC0000000
000FC0000000
000FC0000000
000FC0000000
ENDCHAR
STARTCHAR U+251C
ENCODING 9500
SWIDTH 1000 0
BBX 40 30 0 -6
DWIDTH 40 0
BITMAP
000FC0000000
000FC0000000
000FC0000000
000FC0000000
000FC0000000
000FC0000000
000FC0000000
000FC0000000
000FC0000000
000FC0000000
000FC0000000
000FC0000000
000FFFFFFF00
000FFFFFFF00
000FFFFFFF00
000FC0000000
000FC0000000
000FC0000000
000FC0000000
000FC0000000
000FC0000000
000FC0000000
000FC0000000
000FC0000000
000FC0000000
000FC0000000
000FC0000000
000FC0000000
000FC0000000
000FC0000000
ENDCHAR
STARTCHAR U+23BD
ENCODING 9149
SWIDTH 1000 0
BBX 40 30 0 -6
DWIDTH 40 0
BITMAP
000000000000
000000000000
000000000000
000000000000
000000000000
000000000000
000000000000
000000000000
000000000000
000000000000
000000000000
000000000000
000000000000
000000000000
000000000000
000000000000
000000000000
000000000000
000000000000
000000000000
000000000000
000000000000
000000000000
000000000000
FFFFFFFFFF00
FFFFFFFFFF00
FFFFFFFFFF00
000000000000
000000000000
000000000000
ENDCHAR
STARTCHAR U+23BC
ENCODING 9148
SWIDTH 1000 0
BBX 40 30 0 -6
DWIDTH 40 0
BITMAP
000000000000
000000000000
000000000000
000000000000
000000000000
000000000000
000000000000
000000000000
000000000000
000000000000
000000000000
000000000000
000000000000
000000000000
000000000000
000000000000
000000000000
000000000000
FFFFFFFFFF00
FFFFFFFFFF00
FFFFFFFFFF00
000000000000
000000000000
000000000000
000000000000
000000000000
000000000000
000000000000
000000000000
000000000000
ENDCHAR
STARTCHAR U+2500
ENCODING 9472
SWIDTH 1000 0
BBX 40 30 0 -6
DWIDTH 40 0
BITMAP
000000000000
000000000000
000000000000
000000000000
000000000000
000000000000
000000000000
000000000000
000000000000
000000000000
000000000000
000000000000
FFFFFFFFFF00
FFFFFFFFFF00
FFFFFFFFFF00
000000000000
000000000000
000000000000
000000000000
000000000000
000000000000
000000000000
000000000000
000000000000
000000000000
000000000000
000000000000
000000000000
000000000000
000000000000
ENDCHAR
STARTCHAR U+23BB
ENCODING 9147
SWIDTH 1000 0
BBX 40 30 0 -6
DWIDTH 40 0
BITMAP
000000000000
000000000000
000000000000
000000000000
000000000000
000000000000
FFFFFFFFFF00
FFFFFFFFFF00
FFFFFFFFFF00
000000000000
000000000000
000000000000
000000000000
000000000000
000000000000
000000000000
000000000000
000000000000
000000000000
000000000000
000000000000
000000000000
000000000000
000000000000
000000000000
000000000000
000000000000
000000000000
000000000000
000000000000
ENDCHAR
STARTCHAR U+23BA
ENCODING 9146
SWIDTH 1000 0
BBX 40 30 0 -6
DWIDTH 40 0
BITMAP
FFFFFFFFFF00
FFFFFFFFFF00
FFFFFFFFFF00
000000000000
000000000000
000000000000
000000000000
000000000000
000000000000
000000000000
000000000000
000000000000
000000000000
000000000000
000000000000
000000000000
000000000000
000000000000
000000000000
000000000000
000000000000
000000000000
000000000000
000000000000
000000000000
000000000000
000000000000
000000000000
000000000000
000000000000
ENDCHAR
STARTCHAR U+253C
ENCODING 9532
SWIDTH 1000 0
BBX 40 30 0 -6
DWIDTH 40 0
BITMAP
000FC0000000
000FC0000000
000FC0000000
000FC0000000
000FC0000000
000FC0000000
000FC0000000
000FC0000000
000FC0000000
000FC0000000
000FC0000000
000FC0000000
FFFFFFFFFF00
FFFFFFFFFF00
FFFFFFFFFF00
000FC0000000
000FC0000000
000FC0000000
000FC0000000
000FC0000000
000FC0000000
000FC0000000
000FC0000000
000FC0000000
000FC0000000
000FC0000000
000FC0000000
000FC0000000
000FC0000000
000FC0000000
ENDCHAR
STARTCHAR U+2514
ENCODING 9492
SWIDTH 1000 0
BBX 40 30 0 -6
DWIDTH 40 0
BITMAP
000FC0000000
000FC0000000
000FC0000000
000FC0000000
000FC0000000
000FC0000000
000FC0000000
000FC0000000
000FC0000000
000FC0000000
000FC0000000
000FC0000000
000FFFFFFF00
000FFFFFFF00
000FFFFFFF00
000000000000
000000000000
000000000000
000000000000
000000000000
000000000000
000000000000
000000000000
000000000000
000000000000
000000000000
000000000000
000000000000
000000000000
000000000000
ENDCHAR
STARTCHAR U+250C
ENCODING 9484
SWIDTH 1000 0
BBX 40 30 0 -6
DWIDTH 40 0
BITMAP
000000000000
000000000000
000000000000
000000000000
000000000000
000000000000
000000000000
000000000000
000000000000
000000000000
000000000000
000000000000
000FFFFFFF00
000FFFFFFF00
000FFFFFFF00
000FC0000000
000FC0000000
000FC0000000
000FC0000000
000FC0000000
000FC0000000
000FC0000000
000FC0000000
000FC0000000
000FC0000000
000FC0000000
000FC0000000
000FC0000000
000FC0000000
000FC0000000
ENDCHAR
STARTCHAR U+2510
ENCODING 9488
SWIDTH 1000 0
BBX 40 30 0 -6
DWIDTH 40 0
BITMAP
000000000000
000000000000
000000000000
000000000000
000000000000
000000000000
000000000000
000000000000
000000000000
000000000000
000000000000
000000000000
FFFFC0000000
FFFFC0000000
FFFFC0000000
000FC0000000
000FC0000000
000FC0000000
000FC0000000
000FC0000000
000FC0000000
000FC0000000
000FC0000000
000FC0000000
000FC0000000
000FC0000000
000FC0000000
000FC0000000
000FC0000000
000FC0000000
ENDCHAR
STARTCHAR U+2518
ENCODING 9496
SWIDTH 1000 0
BBX 40 30 0 -6
DWIDTH 40 0
BITMAP
000FC0000000
000FC0000000
000FC0000000
000FC0000000
000FC0000000
000FC0000000
000FC0000000
000FC0000000
000FC0000000
000FC0000000
000FC0000000
000FC0000000
FFFFC0000000
FFFFC0000000
FFFFC0000000
000000000000
000000000000
000000000000
000000000000
000000000000
000000000000
000000000000
000000000000
000000000000
000000000000
000000000000
000000000000
000000000000
000000000000
000000000000
ENDCHAR
STARTCHAR U+240B
ENCODING 9227
SWIDTH 1000 0
BBX 40 30 0 -6
DWIDTH 40 0
BITMAP
000000000000
000000000000
000000000000
FC00FC000000
FC00FC000000
FC00FC000000
FC00FC000000
FC00FC000000
FC00FC000000
0FCFC0000000
0FCFC0000000
0FCFC0000000
0FCFC0000000
0FCFC0000000
0FCFC0000000
00FFFFFC0000
00FFFFFC0000
00FFFFFC0000
0000FC000000
0000FC000000
0000FC000000
0000FC000000
0000FC000000
0000FC000000
0000FC000000
0000FC000000
0000FC000000
0000FC000000
0000FC000000
0000FC000000
ENDCHAR
STARTCHAR U+2424
ENCODING 9252
SWIDTH 1000 0
BBX 40 30 0 -6
DWIDTH 40 0
BITMAP
000000000000
000000000000
000000000000
FC00FC000000
FC00FC000000
FC00FC000000
FFC0FC000000
FFC0FC000000
FFC0FC000000
FCFCFC000000
FCFCFC000000
FCFCFC000000
FC0FFC000000
FC0FFC000000
FC0FFC000000
FC0FFC000000
FC0FFC000000
FC0FFC000000
000FC0000000
000FC0000000
000FC0000000
000FC0000000
000FC0000000
000FC0000000
000FC0000000
000FC0000000
000FC0000000
000FFFFC0000
000FFFFC0000
000FFFFC0000
ENDCHAR
STARTCHAR U+00B1
ENCODING 177
SWIDTH 1000 0
BBX 40 30 0 -6
DWIDTH 40 0
BITMAP
000000000000
000000000000
000000000000
000000000000
000000000000
000000000000
000FC0000000
000FC0000000
000FC0000000
000FC0000000
000FC0000000
000FC0000000
FFFFFFFC0000
FFFFFFFC0000
FFFFFFFC0000
000FC0000000
000FC0000000
000FC0000000
000FC0000000
000FC0000000
000FC0000000
FFFFFFFC0000
FFFFFFFC0000
FFFFFFFC0000
000000000000
000000000000
000000000000
000000000000
000000000000
000000000000
ENDCHAR
STARTCHAR U+00B0
ENCODING 176
SWIDTH 1000 0
BBX 40 30 0 -6
DWIDTH 40 0
BITMAP
000000000000
000000000000
000000000000
00FFFC000000
00FFFC000000
00FFFC000000
0FC00FC00000
0FC00FC00000
0FC00FC00000
00FFFC000000
00FFFC000000
00FFFC000000
000000000000
000000000000
000000000000
000000000000
000000000000
000000000000
000000000000
000000000000
000000000000
000000000000
000000000000
000000000000
000000000000
000000000000
000000000000
000000000000
000000000000
000000000000
ENDCHAR
STARTCHAR U+240A
ENCODING 9226
SWIDTH 1000 0
BBX 40 30 0 -6
DWIDTH 40 0
BITMAP
000000000000
000000000000
000000000000
FC0000000000
FC0000000000
FC0000000000
FC0000000000
FC0000000000
FC0000000000
FC0000000000
FC0000000000
FC0000000000
FC0000000000
FC0000000000
FC0000000000
FFFFFFFC0000
FFFFFFFC0000
FFFFFFFC0000
000FC0000000
000FC0000000
000FC0000000
000FFFC00000
000FFFC00000
000FFFC00000
000FC0000000
000FC0000000
000FC0000000
000FC0000000
000FC0000000
000FC0000000
ENDCHAR
STARTCHAR U+240D
ENCODING 9229
SWIDTH 1000 0
BBX 40 30 0 -6
DWIDTH 40 0
BITMAP
000000000000
000000000000
000000000000
0FFFC0000000
0FFFC0000000
0FFFC0000000
FC0000000000
FC0000000000
FC0000000000
FC0000000000
FC0000000000
FC0000000000
FC0000000000
FC0000000000
FC0000000000
0FFFFFC00000
0FFFFFC00000
0FFFFFC00000
000FC0FC0000
000FC0FC0000
000FC0FC0000
000FFFC00000
000FFFC00000
000FFFC00000
000FC0FC0000
000FC0FC0000
000FC0FC0000
000FC0FC0000
000FC0FC0000
000FC0FC0000
ENDCHAR
STARTCHAR U+240C
ENCODING 9228
SWIDTH 1000 0
BBX 40 30 0 -6
DWIDTH 40 0
BITMAP
000000000000
000000000000
000000000000
FFFFC0000000
FFFFC0000000
FFFFC0000000
FC0000000000
FC0000000000
FC0000000000
FFFC00000000
FFFC00000000
FFFC00000000
FC0000000000
FC0000000000
FC0000000000
FC0FFFFC0000
FC0FFFFC0000
FC0FFFFC0000
000FC0000000
000FC0000000
000FC0000000
000FFFC00000
000FFFC00000
000FFFC00000
000FC0000000
000FC0000000
000FC0000000
000FC0000000
000FC0000000
000FC0000000
ENDCHAR
STARTCHAR U+2409
ENCODING 9225
SWIDTH 1000 0
BBX 40 30 0 -6
DWIDTH 40 0
BITMAP
000000000000
000000000000
000000000000
FC0FC0000000
FC0FC0000000
FC0FC0000000
FC0FC0000000
FC0FC0000000
FC0FC0000000
FFFFC0000000
FFFFC0000000
FFFFC0000000
FC0FC0000000
FC0FC0000000
FC0FC0000000
FCFFFFFC0000
FCFFFFFC0000
FCFFFFFC0000
0000FC000000
0000FC000000
0000FC000000
0000FC000000
0000FC000000
0000FC000000
0000FC000000
0000FC000000
0000FC000000
0000FC000000
0000FC000000
0000FC000000
ENDCHAR
STARTCHAR U+2592
ENCODING 9618
SWIDTH 1000 0
BBX 40 30 0 -6
DWIDTH 40 0
BITMAP
000000000000
000000000000
000000000000
FC0FC0FC0000
FC0FC0FC0000
FC0FC0FC0000
0FC00FC00000
0FC00FC00000
0FC00FC00000
FC0FC0FC0000
FC0FC0FC0000
FC0FC0FC0000
0FC00FC00000
0FC00FC00000
0FC00FC00000
FC0FC0FC0000
FC0FC0FC0000
FC0FC0FC0000
0FC00FC00000
0FC00FC00000
0FC00FC00000
FC0FC0FC0000
FC0FC0FC0000
FC0FC0FC0000
000000000000
000000000000
000000000000
000000000000
000000000000
000000000000
ENDCHAR
STARTCHAR U+25C6
ENCODING 9670
SWIDTH 1000 0
BBX 40 30 0 -6
DWIDTH 40 0
BITMAP
000000000000
000000000000
000000000000
000FC0000000
000FC0000000
000FC0000000
00FFFC000000
00FFFC000000
00FFFC000000
0FFFFFC00000
0FFFFFC00000
0FFFFFC00000
FFFFFFFC0000
FFFFFFFC0000
FFFFFFFC0000
0FFFFFC00000
0FFFFFC00000
0FFFFFC00000
00FFFC000000
00FFFC000000
00FFFC000000
000FC0000000
000FC0000000
000FC0000000
000000000000
000000000000
000000000000
000000000000
000000000000
000000000000
ENDCHAR
STARTCHAR U+0020
ENCODING 32
SWIDTH 1000 0
BBX 40 30 0 -6
DWIDTH 40 0
BITMAP
000000000000
000000000000
000000000000
000000000000
000000000000
000000000000
000000000000
000000000000
000000000000
000000000000
000000000000
000000000000
000000000000
000000000000
000000000000
000000000000
000000000000
000000000000
000000000000
000000000000
000000000000
000000000000
000000000000
000000000000
000000000000
000000000000
000000000000
000000000000
000000000000
000000000000
ENDCHAR
ENDFONT
